<svg id="Layer_1" data-name="Layer 1" xmlns="http://www.w3.org/2000/svg" viewBox="0 0 23.8 15.2"><defs><style>.cls-1{fill:#f0f0f0;}</style></defs><path class="cls-1" d="M23.56,8.28a13.67,13.67,0,0,1-11.67,6.8A13.68,13.68,0,0,1,7,14.13l.78-.78a12.35,12.35,0,0,0,4.08.73A12.58,12.58,0,0,0,22.3,8.39a1.41,1.41,0,0,0,0-1.62,12.33,12.33,0,0,0-4-3.87L19,2.17A13.61,13.61,0,0,1,23.6,6.88,1.35,1.35,0,0,1,23.56,8.28Z"/><path class="cls-1" d="M15.89,7.58a4,4,0,0,1-4,4A3.94,3.94,0,0,1,10,11.12l.75-.75a3,3,0,0,0,1.1.21,3,3,0,0,0,3-3,2.93,2.93,0,0,0-.21-1.09l.75-.76A4,4,0,0,1,15.89,7.58Z"/><path class="cls-1" d="M19.31.16a.5.5,0,0,0-.71,0h0L17.43,1.33a6.07,6.07,0,0,0-.7-.29,13.42,13.42,0,0,0-4.84-1A13.69,13.69,0,0,0,.21,6.89a1.38,1.38,0,0,0,0,1.39A13.59,13.59,0,0,0,4.78,13c.2.13.41.25.62.36l-.94.94a.5.5,0,0,0,.71.71h0l1.17-1.2.76-.76,2.34-2.34L19.31.87a.5.5,0,0,0,0-.71ZM9.44,9.32a3.64,3.64,0,0,1-.34-.65,2.93,2.93,0,0,1-.21-1.09,3,3,0,0,1,3-3A2.93,2.93,0,0,1,13,4.79a3.64,3.64,0,0,1,.65.34Zm4.9-4.9a6.17,6.17,0,0,0-.6-.39,4.11,4.11,0,0,0-1.85-.45,4,4,0,0,0-4,4h0a4,4,0,0,0,.45,1.85,3.85,3.85,0,0,0,.39.6L6.14,12.62a4.82,4.82,0,0,1-.63-.35,12.56,12.56,0,0,1-4-3.88,1.45,1.45,0,0,1,0-1.62A12.64,12.64,0,0,1,11.89,1.08,12.83,12.83,0,0,1,16,1.81a6.15,6.15,0,0,1,.71.28Z"/></svg>