<svg id="Layer_1" data-name="Layer 1" xmlns="http://www.w3.org/2000/svg" viewBox="0 0 53.5 72.84"><defs><style>.cls-1{fill:#f0f0f0;}</style></defs><path class="cls-1" d="M53.5,11.84V61A11.51,11.51,0,0,1,42,72.49H11.53a11.41,11.41,0,0,1-8.16-3.41A11.25,11.25,0,0,1,0,61V56.74a2,2,0,0,1,2-2,2,2,0,0,1,2,2V61a7.48,7.48,0,0,0,7.47,7.47H42A7.48,7.48,0,0,0,49.48,61V11.84A7.49,7.49,0,0,0,42,4.37H11.53a7.48,7.48,0,0,0-7.47,7.47V14a2,2,0,0,1-2,2,2,2,0,0,1-2-2V11.84A11.5,11.5,0,0,1,11.53.35H42A11.51,11.51,0,0,1,53.5,11.84Z"/><path class="cls-1" d="M16.74,23.63,29.17,34.42H2a2,2,0,0,0-2,2,2,2,0,0,0,2,2H29.16L16.75,49.19A2,2,0,0,0,16.52,52a2.12,2.12,0,0,0,1.56.71,2.15,2.15,0,0,0,1.28-.44L35.85,38a2.07,2.07,0,0,0,0-3.05L19.41,20.6a2.1,2.1,0,0,0-1.34-.5,2,2,0,0,0-1.51.69A2,2,0,0,0,16.74,23.63Z"/></svg>