<svg id="Layer_1" data-name="Layer 1" xmlns="http://www.w3.org/2000/svg" viewBox="0 0 64 38"><defs><style>.cls-1{fill:#ee247c;}</style></defs><path class="cls-1" d="M55.73,20.34a6,6,0,1,0-5.46,0A11,11,0,0,0,44.48,24a17.93,17.93,0,0,0-8.93-4.69,10,10,0,1,0-7.1,0A18,18,0,0,0,19.51,24a11,11,0,0,0-5.78-3.7,6,6,0,1,0-5.46,0A11,11,0,0,0,0,31a1,1,0,0,0,1,1H14.7a17.92,17.92,0,0,0-.7,5,1,1,0,0,0,1,1H49a1,1,0,0,0,1-1,17.93,17.93,0,0,0-.71-5H63a1,1,0,0,0,1-1A11,11,0,0,0,55.73,20.34ZM49,15a4,4,0,1,1,4,4A4,4,0,0,1,49,15ZM24,10a8,8,0,1,1,8,8A8,8,0,0,1,24,10ZM7,15a4,4,0,1,1,4,4A4,4,0,0,1,7,15Zm9,13.81-.05.09,0,.06c-.17.34-.33.69-.48,1H2.05a9,9,0,0,1,16.09-4.48A17.44,17.44,0,0,0,16.39,28l0,0,0,.06,0,.09,0,.06,0,0,0,0,0,.07-.05.08h0l0,.06,0,0,0,0,0,.06ZM16,36a16,16,0,0,1,2.36-7.42h0l.05-.08.05-.08.05-.08,0,0,0-.05,0,0,0-.05.05-.08.06-.08.1-.16a16.61,16.61,0,0,1,1.28-1.6h0a16,16,0,0,1,23.69,0h0a15.71,15.71,0,0,1,2.43,3.53l0,.09,0,.08A16.09,16.09,0,0,1,48,36Zm32.55-6a17.14,17.14,0,0,0-1.33-2.55l0-.06-.06-.09-.06-.09,0,0,0-.05v0L47,27l0-.07,0,0,0-.05,0,0v0l-.05-.07-.06-.08,0-.06,0,0c-.26-.37-.53-.72-.81-1.06A9,9,0,0,1,61.94,30Z"/></svg>