<svg id="Layer_1" data-name="Layer 1" xmlns="http://www.w3.org/2000/svg" viewBox="0 0 54.13 60"><defs><style>.cls-1{fill:gray;}</style></defs><path class="cls-1" d="M51.69,12.72a23,23,0,0,0-42.39,3,1,1,0,0,0,.06.76.94.94,0,0,0,.57.5L45.85,29H21a14,14,0,0,0-3.19-7.94l-1.54,1.28A12,12,0,0,1,19,29H15a8,8,0,0,0-8-7v2a6,6,0,0,1,5.91,5H8a1,1,0,0,0-1,1v2.65L.17,42.43A1,1,0,0,0,1,44H6v9a1,1,0,0,0,1,1H23v5a1,1,0,0,0,1,1H52a1,1,0,0,0,1-1V30.1A22.86,22.86,0,0,0,51.69,12.72ZM37.77,3.08A21,21,0,0,1,51.34,28.69L11.54,15.42A21,21,0,0,1,37.77,3.08ZM51,58H25V53a1,1,0,0,0-1-1H8V43a1,1,0,0,0-1-1H2.91l5.9-8.46A.94.94,0,0,0,9,33V31H51ZM22.15,34.66l-1.42-1.42a6,6,0,0,1-8.48,0l-1.42,1.42a8,8,0,0,0,11.32,0Z"/></svg>