<svg id="Layer_1" data-name="Layer 1" xmlns="http://www.w3.org/2000/svg" viewBox="0 0 72.89 92.19"><defs><style>.cls-1{fill:#f0f0f0;}</style></defs><path class="cls-1" d="M36.45,38.18A19.09,19.09,0,1,0,23,32.59a19.11,19.11,0,0,0,13.5,5.59Zm0-33.49A14.43,14.43,0,1,1,26.27,8.91,14.35,14.35,0,0,1,36.45,4.69Z"/><path class="cls-1" d="M36.45,43.59A36.48,36.48,0,0,0,0,80v9.81a2.36,2.36,0,0,0,2.34,2.35H70.55a2.36,2.36,0,0,0,2.34-2.35V80A36.48,36.48,0,0,0,36.44,43.59ZM68.2,87.5H4.69V80A31.76,31.76,0,0,1,68.2,80Z"/></svg>