<svg id="Layer_1" data-name="Layer 1" xmlns="http://www.w3.org/2000/svg" viewBox="0 0 71.87 86.6"><defs><style>.cls-1{fill:#ee247c;fill-rule:evenodd;}</style></defs><path class="cls-1" d="M20.79,77.13A113.06,113.06,0,0,0,33.69,86a4.4,4.4,0,0,0,2.25.61A4.45,4.45,0,0,0,38.19,86a114.08,114.08,0,0,0,12.89-8.86c5.32-4.27,11-9.76,14.49-15.88,5.21-9.15,6.37-22.41,6.3-33.14,0-5.41-.38-10.26-.72-13.76-.18-1.75-.34-3.16-.47-4.14-.06-.49-.11-.87-.15-1.13s0-.23,0-.3l0-.08v0h0a1.56,1.56,0,0,0-1.64-1.33H68.4c-.28,0-.7,0-1.22,0-1,0-2.31.06-3.84.06h-.29A53.26,53.26,0,0,1,52.77,6.6c-4.92-1.08-11.51-4.4-14.53-6A4.94,4.94,0,0,0,35.94,0a4.88,4.88,0,0,0-2.3.58c-3,1.62-9.61,4.94-14.54,6a53.26,53.26,0,0,1-10.28.88H8.53c-1.52,0-2.86,0-3.84-.06-.52,0-.93,0-1.22,0H3A1.57,1.57,0,0,0,1.4,8.68h0v.1c0,.07,0,.17,0,.3s-.09.64-.15,1.13c-.12,1-.29,2.39-.46,4.14C.39,17.85,0,22.7,0,28.11c-.07,10.73,1.1,24,6.3,33.14,3.48,6.12,9.17,11.61,14.5,15.88Zm-1-67.47a57.48,57.48,0,0,1-10.94.95c-1.69,0-3.19,0-4.26-.06H4.3v.07c-.13,1-.29,2.33-.46,4-.33,3.44-.67,8.19-.7,13.48C3.06,38.8,4.25,51.32,9,59.7c3.19,5.62,8.52,10.82,13.73,15a107.68,107.68,0,0,0,12.51,8.6,1.26,1.26,0,0,0,.67.19,1.3,1.3,0,0,0,.68-.19,107.68,107.68,0,0,0,12.51-8.6c5.21-4.17,10.54-9.37,13.73-15,4.77-8.38,6-20.9,5.89-31.57,0-5.29-.37-10-.7-13.48-.17-1.71-.34-3.09-.46-4v-.07h-.28c-1.07,0-2.57.06-4.26.06a57.48,57.48,0,0,1-10.94-.95,41,41,0,0,1-5.61-1.78,92.73,92.73,0,0,1-9.72-4.55,1.85,1.85,0,0,0-.83-.2,1.81,1.81,0,0,0-.82.2,93.72,93.72,0,0,1-9.72,4.55,41,41,0,0,1-5.61,1.78Z"/><path class="cls-1" d="M24.21,68.3A79.63,79.63,0,0,0,33.65,75a4.36,4.36,0,0,0,2.29.64A4.41,4.41,0,0,0,38.23,75a80.54,80.54,0,0,0,9.43-6.7c3.76-3.12,7.73-7.09,10.21-11.53C61.65,50,62.52,40.28,62.5,32.39V32c0-4-.28-7.63-.53-10.23-.13-1.3-.25-2.35-.34-3.08-.05-.36-.08-.65-.11-.85l0-.22V17.6h0a1.57,1.57,0,0,0-1.65-1.32h-.3l-.88,0c-.76,0-1.8.05-3,0a37.84,37.84,0,0,1-7.38-.64,46.66,46.66,0,0,1-10-4.18,5,5,0,0,0-4.65,0,46.78,46.78,0,0,1-10,4.18,38,38,0,0,1-7.39.64c-1.18,0-2.23,0-3,0l-.88,0H12a1.55,1.55,0,0,0-1.64,1.32h0v.06l0,.22c0,.2-.06.49-.11.85-.09.73-.21,1.78-.34,3.08C9.65,24.41,9.4,28,9.38,32v.35c0,7.89.85,17.61,4.64,24.38,2.47,4.44,6.44,8.41,10.2,11.53ZM13.3,19.44c-.08.68-.18,1.58-.29,2.67-.21,2.31-.44,5.44-.5,8.94l21.86,4.1V14.66a46.18,46.18,0,0,1-10.09,4.1,40.65,40.65,0,0,1-8,.72c-1.14,0-2.16,0-2.93,0ZM34.37,38.33l-21.86-4.1c.12,7.36,1.12,15.46,4.22,21a40.61,40.61,0,0,0,9.48,10.64,77.59,77.59,0,0,0,8.16,5.89Zm24.2-18.89c.08.68.18,1.58.29,2.67.22,2.31.44,5.44.5,8.94L37.5,35.15V14.66a46.18,46.18,0,0,0,10.09,4.1,40.65,40.65,0,0,0,8,.72c1.14,0,2.16,0,2.93,0ZM37.5,38.33l21.86-4.1c-.12,7.36-1.12,15.46-4.22,21a40.61,40.61,0,0,1-9.48,10.64,77.59,77.59,0,0,1-8.16,5.89Z"/></svg>