<svg id="Layer_1" data-name="Layer 1" xmlns="http://www.w3.org/2000/svg" viewBox="0 0 300 241.49"><defs><style>.cls-1{fill:#f0f0f0;}</style></defs><path class="cls-1" d="M256.72,74.79H237.23a7.33,7.33,0,0,0,0,14.65h19.49a7.33,7.33,0,1,0,0-14.65ZM150,103.54a38.82,38.82,0,0,0-38.76,38.77,7.33,7.33,0,1,0,14.66,0,24,24,0,0,1,24.1-24.1,7.34,7.34,0,0,0,0-14.67Zm0,0a38.82,38.82,0,0,0-38.76,38.77,7.33,7.33,0,1,0,14.66,0,24,24,0,0,1,24.1-24.1,7.34,7.34,0,0,0,0-14.67Zm0,0a38.82,38.82,0,0,0-38.76,38.77,7.33,7.33,0,1,0,14.66,0,24,24,0,0,1,24.1-24.1,7.34,7.34,0,0,0,0-14.67Zm0,0a38.82,38.82,0,0,0-38.76,38.77,7.33,7.33,0,1,0,14.66,0,24,24,0,0,1,24.1-24.1,7.34,7.34,0,0,0,0-14.67Zm0,0a38.82,38.82,0,0,0-38.76,38.77,7.33,7.33,0,1,0,14.66,0,24,24,0,0,1,24.1-24.1,7.34,7.34,0,0,0,0-14.67Zm0,0a38.82,38.82,0,0,0-38.76,38.77,7.33,7.33,0,1,0,14.66,0,24,24,0,0,1,24.1-24.1,7.34,7.34,0,0,0,0-14.67Zm47.19-8.45a66.7,66.7,0,0,0-93.91-.46l-.5.46a66.8,66.8,0,1,0,94.41,0Zm-10.33,84.07A52.12,52.12,0,0,1,113.1,105.5l.49-.52a52.13,52.13,0,0,1,73.27,74.18ZM150,103.54a38.82,38.82,0,0,0-38.76,38.77,7.33,7.33,0,1,0,14.66,0,24,24,0,0,1,24.1-24.1,7.34,7.34,0,0,0,0-14.67Zm0,0a38.82,38.82,0,0,0-38.76,38.77,7.33,7.33,0,1,0,14.66,0,24,24,0,0,1,24.1-24.1,7.34,7.34,0,0,0,0-14.67Zm0,0a38.82,38.82,0,0,0-38.76,38.77,7.33,7.33,0,1,0,14.66,0,24,24,0,0,1,24.1-24.1,7.34,7.34,0,0,0,0-14.67Zm0,0a38.82,38.82,0,0,0-38.76,38.77,7.33,7.33,0,1,0,14.66,0,24,24,0,0,1,24.1-24.1,7.34,7.34,0,0,0,0-14.67Zm0,0a38.82,38.82,0,0,0-38.76,38.77,7.33,7.33,0,1,0,14.66,0,24,24,0,0,1,24.1-24.1,7.34,7.34,0,0,0,0-14.67Zm0,0a38.82,38.82,0,0,0-38.76,38.77,7.33,7.33,0,1,0,14.66,0,24,24,0,0,1,24.1-24.1,7.34,7.34,0,0,0,0-14.67Zm0,0a38.82,38.82,0,0,0-38.76,38.77,7.33,7.33,0,1,0,14.66,0,24,24,0,0,1,24.1-24.1,7.34,7.34,0,0,0,0-14.67Zm0,0a38.82,38.82,0,0,0-38.76,38.77,7.33,7.33,0,1,0,14.66,0,24,24,0,0,1,24.1-24.1,7.34,7.34,0,0,0,0-14.67Zm0,0a38.82,38.82,0,0,0-38.76,38.77,7.33,7.33,0,1,0,14.66,0,24,24,0,0,1,24.1-24.1,7.34,7.34,0,0,0,0-14.67Zm0,0a38.82,38.82,0,0,0-38.76,38.77,7.33,7.33,0,1,0,14.66,0,24,24,0,0,1,24.1-24.1,7.34,7.34,0,0,0,0-14.67Zm0,0a38.82,38.82,0,0,0-38.76,38.77,7.33,7.33,0,1,0,14.66,0,24,24,0,0,1,24.1-24.1,7.34,7.34,0,0,0,0-14.67Zm0,0a38.82,38.82,0,0,0-38.76,38.77,7.33,7.33,0,1,0,14.66,0,24,24,0,0,1,24.1-24.1,7.34,7.34,0,0,0,0-14.67Zm0,0a38.82,38.82,0,0,0-38.76,38.77,7.33,7.33,0,1,0,14.66,0,24,24,0,0,1,24.1-24.1,7.34,7.34,0,0,0,0-14.67Zm0,0a38.82,38.82,0,0,0-38.76,38.77,7.33,7.33,0,1,0,14.66,0,24,24,0,0,1,24.1-24.1,7.34,7.34,0,0,0,0-14.67Zm47.19-8.45a66.7,66.7,0,0,0-93.91-.46l-.5.46a66.8,66.8,0,1,0,94.41,0Zm-10.33,84.07A52.12,52.12,0,0,1,113.1,105.5l.49-.52a52.13,52.13,0,0,1,73.27,74.18ZM150,103.54a38.82,38.82,0,0,0-38.76,38.77,7.33,7.33,0,1,0,14.66,0,24,24,0,0,1,24.1-24.1,7.34,7.34,0,0,0,0-14.67Zm0,0a38.82,38.82,0,0,0-38.76,38.77,7.33,7.33,0,1,0,14.66,0,24,24,0,0,1,24.1-24.1,7.34,7.34,0,0,0,0-14.67Zm0,0a38.82,38.82,0,0,0-38.76,38.77,7.33,7.33,0,1,0,14.66,0,24,24,0,0,1,24.1-24.1,7.34,7.34,0,0,0,0-14.67Zm0,0a38.82,38.82,0,0,0-38.76,38.77,7.33,7.33,0,1,0,14.66,0,24,24,0,0,1,24.1-24.1,7.34,7.34,0,0,0,0-14.67Zm0,0a38.82,38.82,0,0,0-38.76,38.77,7.33,7.33,0,1,0,14.66,0,24,24,0,0,1,24.1-24.1,7.34,7.34,0,0,0,0-14.67Zm0,0a38.82,38.82,0,0,0-38.76,38.77,7.33,7.33,0,1,0,14.66,0,24,24,0,0,1,24.1-24.1,7.34,7.34,0,0,0,0-14.67Zm0,0a38.82,38.82,0,0,0-38.76,38.77,7.33,7.33,0,1,0,14.66,0,24,24,0,0,1,24.1-24.1,7.34,7.34,0,0,0,0-14.67Zm0,0a38.82,38.82,0,0,0-38.76,38.77,7.33,7.33,0,1,0,14.66,0,24,24,0,0,1,24.1-24.1,7.34,7.34,0,0,0,0-14.67ZM256.72,74.79H237.23a7.33,7.33,0,0,0,0,14.65h19.49a7.33,7.33,0,1,0,0-14.65ZM150,103.54a38.82,38.82,0,0,0-38.76,38.77,7.33,7.33,0,1,0,14.66,0,24,24,0,0,1,24.1-24.1,7.34,7.34,0,0,0,0-14.67Zm0,0a38.82,38.82,0,0,0-38.76,38.77,7.33,7.33,0,1,0,14.66,0,24,24,0,0,1,24.1-24.1,7.34,7.34,0,0,0,0-14.67Zm0,0a38.82,38.82,0,0,0-38.76,38.77,7.33,7.33,0,1,0,14.66,0,24,24,0,0,1,24.1-24.1,7.34,7.34,0,0,0,0-14.67Zm0,0a38.82,38.82,0,0,0-38.76,38.77,7.33,7.33,0,1,0,14.66,0,24,24,0,0,1,24.1-24.1,7.34,7.34,0,0,0,0-14.67Zm0,0a38.82,38.82,0,0,0-38.76,38.77,7.33,7.33,0,1,0,14.66,0,24,24,0,0,1,24.1-24.1,7.34,7.34,0,0,0,0-14.67Zm0,0a38.82,38.82,0,0,0-38.76,38.77,7.33,7.33,0,1,0,14.66,0,24,24,0,0,1,24.1-24.1,7.34,7.34,0,0,0,0-14.67Zm47.19-8.45a66.7,66.7,0,0,0-93.91-.46l-.5.46a66.8,66.8,0,1,0,94.41,0Zm-10.33,84.07A52.12,52.12,0,0,1,113.1,105.5l.49-.52a52.13,52.13,0,0,1,73.27,74.18ZM150,103.54a38.82,38.82,0,0,0-38.76,38.77,7.33,7.33,0,1,0,14.66,0,24,24,0,0,1,24.1-24.1,7.34,7.34,0,0,0,0-14.67Zm0,0a38.82,38.82,0,0,0-38.76,38.77,7.33,7.33,0,1,0,14.66,0,24,24,0,0,1,24.1-24.1,7.34,7.34,0,0,0,0-14.67Zm0,0a38.82,38.82,0,0,0-38.76,38.77,7.33,7.33,0,1,0,14.66,0,24,24,0,0,1,24.1-24.1,7.34,7.34,0,0,0,0-14.67Zm0,0a38.82,38.82,0,0,0-38.76,38.77,7.33,7.33,0,1,0,14.66,0,24,24,0,0,1,24.1-24.1,7.34,7.34,0,0,0,0-14.67Zm0,0a38.82,38.82,0,0,0-38.76,38.77,7.33,7.33,0,1,0,14.66,0,24,24,0,0,1,24.1-24.1,7.34,7.34,0,0,0,0-14.67ZM256.72,74.79H237.23a7.33,7.33,0,0,0,0,14.65h19.49a7.33,7.33,0,1,0,0-14.65Zm0,0H237.23a7.33,7.33,0,0,0,0,14.65h19.49a7.33,7.33,0,1,0,0-14.65ZM150,103.54a38.82,38.82,0,0,0-38.76,38.77,7.33,7.33,0,1,0,14.66,0,24,24,0,0,1,24.1-24.1,7.34,7.34,0,0,0,0-14.67Zm0,0a38.82,38.82,0,0,0-38.76,38.77,7.33,7.33,0,1,0,14.66,0,24,24,0,0,1,24.1-24.1,7.34,7.34,0,0,0,0-14.67Zm0,0a38.82,38.82,0,0,0-38.76,38.77,7.33,7.33,0,1,0,14.66,0,24,24,0,0,1,24.1-24.1,7.34,7.34,0,0,0,0-14.67Zm0,0a38.82,38.82,0,0,0-38.76,38.77,7.33,7.33,0,1,0,14.66,0,24,24,0,0,1,24.1-24.1,7.34,7.34,0,0,0,0-14.67Zm47.19-8.45a66.7,66.7,0,0,0-93.91-.46l-.5.46a66.8,66.8,0,1,0,94.41,0Zm-10.33,84.07A52.12,52.12,0,0,1,113.1,105.5l.49-.52a52.13,52.13,0,0,1,73.27,74.18ZM150,103.54a38.82,38.82,0,0,0-38.76,38.77,7.33,7.33,0,1,0,14.66,0,24,24,0,0,1,24.1-24.1,7.34,7.34,0,0,0,0-14.67Zm0,0a38.82,38.82,0,0,0-38.76,38.77,7.33,7.33,0,1,0,14.66,0,24,24,0,0,1,24.1-24.1,7.34,7.34,0,0,0,0-14.67Zm0,0a38.82,38.82,0,0,0-38.76,38.77,7.33,7.33,0,1,0,14.66,0,24,24,0,0,1,24.1-24.1,7.34,7.34,0,0,0,0-14.67Zm0,0a38.82,38.82,0,0,0-38.76,38.77,7.33,7.33,0,1,0,14.66,0,24,24,0,0,1,24.1-24.1,7.34,7.34,0,0,0,0-14.67Zm0,0a38.82,38.82,0,0,0-38.76,38.77,7.33,7.33,0,1,0,14.66,0,24,24,0,0,1,24.1-24.1,7.34,7.34,0,0,0,0-14.67Zm0,0a38.82,38.82,0,0,0-38.76,38.77,7.33,7.33,0,1,0,14.66,0,24,24,0,0,1,24.1-24.1,7.34,7.34,0,0,0,0-14.67Zm0,0a38.82,38.82,0,0,0-38.76,38.77,7.33,7.33,0,1,0,14.66,0,24,24,0,0,1,24.1-24.1,7.34,7.34,0,0,0,0-14.67Zm0,0a38.82,38.82,0,0,0-38.76,38.77,7.33,7.33,0,1,0,14.66,0,24,24,0,0,1,24.1-24.1,7.34,7.34,0,0,0,0-14.67Zm0,0a38.82,38.82,0,0,0-38.76,38.77,7.33,7.33,0,1,0,14.66,0,24,24,0,0,1,24.1-24.1,7.34,7.34,0,0,0,0-14.67Zm47.19-8.45a66.7,66.7,0,0,0-93.91-.46l-.5.46a66.8,66.8,0,1,0,94.41,0Zm-10.33,84.07A52.12,52.12,0,0,1,113.1,105.5l.49-.52a52.13,52.13,0,0,1,73.27,74.18ZM150,103.54a38.82,38.82,0,0,0-38.76,38.77,7.33,7.33,0,1,0,14.66,0,24,24,0,0,1,24.1-24.1,7.34,7.34,0,0,0,0-14.67Zm0,0a38.82,38.82,0,0,0-38.76,38.77,7.33,7.33,0,1,0,14.66,0,24,24,0,0,1,24.1-24.1,7.34,7.34,0,0,0,0-14.67Zm0,0a38.82,38.82,0,0,0-38.76,38.77,7.33,7.33,0,1,0,14.66,0,24,24,0,0,1,24.1-24.1,7.34,7.34,0,0,0,0-14.67ZM256.72,74.79H237.23a7.33,7.33,0,0,0,0,14.65h19.49a7.33,7.33,0,1,0,0-14.65Zm0,0H237.23a7.33,7.33,0,0,0,0,14.65h19.49a7.33,7.33,0,1,0,0-14.65ZM150,103.54a38.82,38.82,0,0,0-38.76,38.77,7.33,7.33,0,1,0,14.66,0,24,24,0,0,1,24.1-24.1,7.34,7.34,0,0,0,0-14.67Zm0,0a38.82,38.82,0,0,0-38.76,38.77,7.33,7.33,0,1,0,14.66,0,24,24,0,0,1,24.1-24.1,7.34,7.34,0,0,0,0-14.67Zm47.19-8.45a66.7,66.7,0,0,0-93.91-.46l-.5.46a66.8,66.8,0,1,0,94.41,0Zm-10.33,84.07A52.12,52.12,0,0,1,113.1,105.5l.49-.52a52.13,52.13,0,0,1,73.27,74.18ZM150,103.54a38.82,38.82,0,0,0-38.76,38.77,7.33,7.33,0,1,0,14.66,0,24,24,0,0,1,24.1-24.1,7.34,7.34,0,0,0,0-14.67Zm0,0a38.82,38.82,0,0,0-38.76,38.77,7.33,7.33,0,1,0,14.66,0,24,24,0,0,1,24.1-24.1,7.34,7.34,0,0,0,0-14.67Zm0,0a38.82,38.82,0,0,0-38.76,38.77,7.33,7.33,0,1,0,14.66,0,24,24,0,0,1,24.1-24.1,7.34,7.34,0,0,0,0-14.67Zm0,0a38.82,38.82,0,0,0-38.76,38.77,7.33,7.33,0,1,0,14.66,0,24,24,0,0,1,24.1-24.1,7.34,7.34,0,0,0,0-14.67Zm0,0a38.82,38.82,0,0,0-38.76,38.77,7.33,7.33,0,1,0,14.66,0,24,24,0,0,1,24.1-24.1,7.34,7.34,0,0,0,0-14.67Zm47.19-8.45a66.7,66.7,0,0,0-93.91-.46l-.5.46a66.8,66.8,0,1,0,94.41,0Zm-10.33,84.07A52.12,52.12,0,0,1,113.1,105.5l.49-.52a52.13,52.13,0,0,1,73.27,74.18ZM150,103.54a38.82,38.82,0,0,0-38.76,38.77,7.33,7.33,0,1,0,14.66,0,24,24,0,0,1,24.1-24.1,7.34,7.34,0,0,0,0-14.67ZM256.72,74.79H237.23a7.33,7.33,0,0,0,0,14.65h19.49a7.33,7.33,0,1,0,0-14.65Zm0,0H237.23a7.33,7.33,0,0,0,0,14.65h19.49a7.33,7.33,0,1,0,0-14.65ZM150,75.53a66.44,66.44,0,0,0-46.72,19.1l-.5.46A66.74,66.74,0,1,0,150,75.53Zm36.86,103.63A52.12,52.12,0,0,1,113.1,105.5l.49-.52a52.13,52.13,0,0,1,73.27,74.18ZM150,103.54a38.82,38.82,0,0,0-38.76,38.77,7.33,7.33,0,1,0,14.66,0,24,24,0,0,1,24.1-24.1,7.34,7.34,0,0,0,0-14.67Zm139.55-50a35.34,35.34,0,0,0-25.14-10.45H227.32L204.84,3.73A7.41,7.41,0,0,0,198.49,0h-97A7.37,7.37,0,0,0,94.9,4.2l0,.07L72.69,43.12H35.59A35.68,35.68,0,0,0,0,78.72V205.9a35.68,35.68,0,0,0,35.59,35.59H264.41A35.68,35.68,0,0,0,300,205.9V78.72A35.35,35.35,0,0,0,289.55,53.57ZM105.75,14.66h88.51l16.25,28.46H89.5ZM285.34,205.9a21,21,0,0,1-20.93,20.93H35.59A21,21,0,0,1,14.66,205.9V78.72A21,21,0,0,1,35.59,57.79H264.41a21,21,0,0,1,20.93,20.93ZM256.72,74.79H237.23a7.33,7.33,0,0,0,0,14.65h19.49a7.33,7.33,0,1,0,0-14.65ZM150,75.53a66.44,66.44,0,0,0-46.72,19.1l-.5.46A66.74,66.74,0,1,0,150,75.53Zm36.86,103.63A52.12,52.12,0,0,1,113.1,105.5l.49-.52a52.13,52.13,0,0,1,73.27,74.18ZM150,103.54a38.82,38.82,0,0,0-38.76,38.77,7.33,7.33,0,1,0,14.66,0,24,24,0,0,1,24.1-24.1,7.34,7.34,0,0,0,0-14.67Zm0,0a38.82,38.82,0,0,0-38.76,38.77,7.33,7.33,0,1,0,14.66,0,24,24,0,0,1,24.1-24.1,7.34,7.34,0,0,0,0-14.67Zm0,0a38.82,38.82,0,0,0-38.76,38.77,7.33,7.33,0,1,0,14.66,0,24,24,0,0,1,24.1-24.1,7.34,7.34,0,0,0,0-14.67Zm47.19-8.45a66.7,66.7,0,0,0-93.91-.46l-.5.46a66.8,66.8,0,1,0,94.41,0Zm-10.33,84.07A52.12,52.12,0,0,1,113.1,105.5l.49-.52a52.13,52.13,0,0,1,73.27,74.18ZM150,103.54a38.82,38.82,0,0,0-38.76,38.77,7.33,7.33,0,1,0,14.66,0,24,24,0,0,1,24.1-24.1,7.34,7.34,0,0,0,0-14.67ZM256.72,74.79H237.23a7.33,7.33,0,0,0,0,14.65h19.49a7.33,7.33,0,1,0,0-14.65Zm0,0H237.23a7.33,7.33,0,0,0,0,14.65h19.49a7.33,7.33,0,1,0,0-14.65ZM150,103.54a38.82,38.82,0,0,0-38.76,38.77,7.33,7.33,0,1,0,14.66,0,24,24,0,0,1,24.1-24.1,7.34,7.34,0,0,0,0-14.67Zm0,0a38.82,38.82,0,0,0-38.76,38.77,7.33,7.33,0,1,0,14.66,0,24,24,0,0,1,24.1-24.1,7.34,7.34,0,0,0,0-14.67Zm47.19-8.45a66.7,66.7,0,0,0-93.91-.46l-.5.46a66.8,66.8,0,1,0,94.41,0Zm-10.33,84.07A52.12,52.12,0,0,1,113.1,105.5l.49-.52a52.13,52.13,0,0,1,73.27,74.18ZM150,103.54a38.82,38.82,0,0,0-38.76,38.77,7.33,7.33,0,1,0,14.66,0,24,24,0,0,1,24.1-24.1,7.34,7.34,0,0,0,0-14.67Zm0,0a38.82,38.82,0,0,0-38.76,38.77,7.33,7.33,0,1,0,14.66,0,24,24,0,0,1,24.1-24.1,7.34,7.34,0,0,0,0-14.67Zm0,0a38.82,38.82,0,0,0-38.76,38.77,7.33,7.33,0,1,0,14.66,0,24,24,0,0,1,24.1-24.1,7.34,7.34,0,0,0,0-14.67Zm0,0a38.82,38.82,0,0,0-38.76,38.77,7.33,7.33,0,1,0,14.66,0,24,24,0,0,1,24.1-24.1,7.34,7.34,0,0,0,0-14.67Zm0,0a38.82,38.82,0,0,0-38.76,38.77,7.33,7.33,0,1,0,14.66,0,24,24,0,0,1,24.1-24.1,7.34,7.34,0,0,0,0-14.67Zm0,0a38.82,38.82,0,0,0-38.76,38.77,7.33,7.33,0,1,0,14.66,0,24,24,0,0,1,24.1-24.1,7.34,7.34,0,0,0,0-14.67Zm0,0a38.82,38.82,0,0,0-38.76,38.77,7.33,7.33,0,1,0,14.66,0,24,24,0,0,1,24.1-24.1,7.34,7.34,0,0,0,0-14.67Zm47.19-8.45a66.7,66.7,0,0,0-93.91-.46l-.5.46a66.8,66.8,0,1,0,94.41,0Zm-10.33,84.07A52.12,52.12,0,0,1,113.1,105.5l.49-.52a52.13,52.13,0,0,1,73.27,74.18ZM150,103.54a38.82,38.82,0,0,0-38.76,38.77,7.33,7.33,0,1,0,14.66,0,24,24,0,0,1,24.1-24.1,7.34,7.34,0,0,0,0-14.67Zm0,0a38.82,38.82,0,0,0-38.76,38.77,7.33,7.33,0,1,0,14.66,0,24,24,0,0,1,24.1-24.1,7.34,7.34,0,0,0,0-14.67Zm0,0a38.82,38.82,0,0,0-38.76,38.77,7.33,7.33,0,1,0,14.66,0,24,24,0,0,1,24.1-24.1,7.34,7.34,0,0,0,0-14.67ZM256.72,74.79H237.23a7.33,7.33,0,0,0,0,14.65h19.49a7.33,7.33,0,1,0,0-14.65Zm0,0H237.23a7.33,7.33,0,0,0,0,14.65h19.49a7.33,7.33,0,1,0,0-14.65ZM150,103.54a38.82,38.82,0,0,0-38.76,38.77,7.33,7.33,0,1,0,14.66,0,24,24,0,0,1,24.1-24.1,7.34,7.34,0,0,0,0-14.67Zm0,0a38.82,38.82,0,0,0-38.76,38.77,7.33,7.33,0,1,0,14.66,0,24,24,0,0,1,24.1-24.1,7.34,7.34,0,0,0,0-14.67Zm0,0a38.82,38.82,0,0,0-38.76,38.77,7.33,7.33,0,1,0,14.66,0,24,24,0,0,1,24.1-24.1,7.34,7.34,0,0,0,0-14.67Zm0,0a38.82,38.82,0,0,0-38.76,38.77,7.33,7.33,0,1,0,14.66,0,24,24,0,0,1,24.1-24.1,7.34,7.34,0,0,0,0-14.67Zm47.19-8.45a66.7,66.7,0,0,0-93.91-.46l-.5.46a66.8,66.8,0,1,0,94.41,0Zm-10.33,84.07A52.12,52.12,0,0,1,113.1,105.5l.49-.52a52.13,52.13,0,0,1,73.27,74.18ZM150,103.54a38.82,38.82,0,0,0-38.76,38.77,7.33,7.33,0,1,0,14.66,0,24,24,0,0,1,24.1-24.1,7.34,7.34,0,0,0,0-14.67Zm0,0a38.82,38.82,0,0,0-38.76,38.77,7.33,7.33,0,1,0,14.66,0,24,24,0,0,1,24.1-24.1,7.34,7.34,0,0,0,0-14.67Zm0,0a38.82,38.82,0,0,0-38.76,38.77,7.33,7.33,0,1,0,14.66,0,24,24,0,0,1,24.1-24.1,7.34,7.34,0,0,0,0-14.67Zm0,0a38.82,38.82,0,0,0-38.76,38.77,7.33,7.33,0,1,0,14.66,0,24,24,0,0,1,24.1-24.1,7.34,7.34,0,0,0,0-14.67Zm0,0a38.82,38.82,0,0,0-38.76,38.77,7.33,7.33,0,1,0,14.66,0,24,24,0,0,1,24.1-24.1,7.34,7.34,0,0,0,0-14.67Zm0,0a38.82,38.82,0,0,0-38.76,38.77,7.33,7.33,0,1,0,14.66,0,24,24,0,0,1,24.1-24.1,7.34,7.34,0,0,0,0-14.67Zm0,0a38.82,38.82,0,0,0-38.76,38.77,7.33,7.33,0,1,0,14.66,0,24,24,0,0,1,24.1-24.1,7.34,7.34,0,0,0,0-14.67Zm0,0a38.82,38.82,0,0,0-38.76,38.77,7.33,7.33,0,1,0,14.66,0,24,24,0,0,1,24.1-24.1,7.34,7.34,0,0,0,0-14.67Zm0,0a38.82,38.82,0,0,0-38.76,38.77,7.33,7.33,0,1,0,14.66,0,24,24,0,0,1,24.1-24.1,7.34,7.34,0,0,0,0-14.67Zm0,0a38.82,38.82,0,0,0-38.76,38.77,7.33,7.33,0,1,0,14.66,0,24,24,0,0,1,24.1-24.1,7.34,7.34,0,0,0,0-14.67Zm0,0a38.82,38.82,0,0,0-38.76,38.77,7.33,7.33,0,1,0,14.66,0,24,24,0,0,1,24.1-24.1,7.34,7.34,0,0,0,0-14.67Zm47.19-8.45a66.7,66.7,0,0,0-93.91-.46l-.5.46a66.8,66.8,0,1,0,94.41,0Zm-10.33,84.07A52.12,52.12,0,0,1,113.1,105.5l.49-.52a52.13,52.13,0,0,1,73.27,74.18ZM150,103.54a38.82,38.82,0,0,0-38.76,38.77,7.33,7.33,0,1,0,14.66,0,24,24,0,0,1,24.1-24.1,7.34,7.34,0,0,0,0-14.67Zm0,0a38.82,38.82,0,0,0-38.76,38.77,7.33,7.33,0,1,0,14.66,0,24,24,0,0,1,24.1-24.1,7.34,7.34,0,0,0,0-14.67Zm0,0a38.82,38.82,0,0,0-38.76,38.77,7.33,7.33,0,1,0,14.66,0,24,24,0,0,1,24.1-24.1,7.34,7.34,0,0,0,0-14.67Zm0,0a38.82,38.82,0,0,0-38.76,38.77,7.33,7.33,0,1,0,14.66,0,24,24,0,0,1,24.1-24.1,7.34,7.34,0,0,0,0-14.67Zm0,0a38.82,38.82,0,0,0-38.76,38.77,7.33,7.33,0,1,0,14.66,0,24,24,0,0,1,24.1-24.1,7.34,7.34,0,0,0,0-14.67ZM256.72,74.79H237.23a7.33,7.33,0,0,0,0,14.65h19.49a7.33,7.33,0,1,0,0-14.65Zm0,0H237.23a7.33,7.33,0,0,0,0,14.65h19.49a7.33,7.33,0,1,0,0-14.65ZM150,103.54a38.82,38.82,0,0,0-38.76,38.77,7.33,7.33,0,1,0,14.66,0,24,24,0,0,1,24.1-24.1,7.34,7.34,0,0,0,0-14.67Zm0,0a38.82,38.82,0,0,0-38.76,38.77,7.33,7.33,0,1,0,14.66,0,24,24,0,0,1,24.1-24.1,7.34,7.34,0,0,0,0-14.67Zm0,0a38.82,38.82,0,0,0-38.76,38.77,7.33,7.33,0,1,0,14.66,0,24,24,0,0,1,24.1-24.1,7.34,7.34,0,0,0,0-14.67Zm0,0a38.82,38.82,0,0,0-38.76,38.77,7.33,7.33,0,1,0,14.66,0,24,24,0,0,1,24.1-24.1,7.34,7.34,0,0,0,0-14.67Zm0,0a38.82,38.82,0,0,0-38.76,38.77,7.33,7.33,0,1,0,14.66,0,24,24,0,0,1,24.1-24.1,7.34,7.34,0,0,0,0-14.67Zm0,0a38.82,38.82,0,0,0-38.76,38.77,7.33,7.33,0,1,0,14.66,0,24,24,0,0,1,24.1-24.1,7.34,7.34,0,0,0,0-14.67Zm47.19-8.45a66.7,66.7,0,0,0-93.91-.46l-.5.46a66.8,66.8,0,1,0,94.41,0Zm-10.33,84.07A52.12,52.12,0,0,1,113.1,105.5l.49-.52a52.13,52.13,0,0,1,73.27,74.18ZM150,103.54a38.82,38.82,0,0,0-38.76,38.77,7.33,7.33,0,1,0,14.66,0,24,24,0,0,1,24.1-24.1,7.34,7.34,0,0,0,0-14.67Zm0,0a38.82,38.82,0,0,0-38.76,38.77,7.33,7.33,0,1,0,14.66,0,24,24,0,0,1,24.1-24.1,7.34,7.34,0,0,0,0-14.67Zm0,0a38.82,38.82,0,0,0-38.76,38.77,7.33,7.33,0,1,0,14.66,0,24,24,0,0,1,24.1-24.1,7.34,7.34,0,0,0,0-14.67Zm0,0a38.82,38.82,0,0,0-38.76,38.77,7.33,7.33,0,1,0,14.66,0,24,24,0,0,1,24.1-24.1,7.34,7.34,0,0,0,0-14.67Zm0,0a38.82,38.82,0,0,0-38.76,38.77,7.33,7.33,0,1,0,14.66,0,24,24,0,0,1,24.1-24.1,7.34,7.34,0,0,0,0-14.67Zm0,0a38.82,38.82,0,0,0-38.76,38.77,7.33,7.33,0,1,0,14.66,0,24,24,0,0,1,24.1-24.1,7.34,7.34,0,0,0,0-14.67Zm0,0a38.82,38.82,0,0,0-38.76,38.77,7.33,7.33,0,1,0,14.66,0,24,24,0,0,1,24.1-24.1,7.34,7.34,0,0,0,0-14.67Z"/><path class="cls-1" d="M256.72,74.79H237.23a7.33,7.33,0,0,0,0,14.65h19.49a7.33,7.33,0,1,0,0-14.65ZM150,103.54a38.82,38.82,0,0,0-38.76,38.77,7.33,7.33,0,1,0,14.66,0,24,24,0,0,1,24.1-24.1,7.34,7.34,0,0,0,0-14.67Zm0,0a38.82,38.82,0,0,0-38.76,38.77,7.33,7.33,0,1,0,14.66,0,24,24,0,0,1,24.1-24.1,7.34,7.34,0,0,0,0-14.67Zm0,0a38.82,38.82,0,0,0-38.76,38.77,7.33,7.33,0,1,0,14.66,0,24,24,0,0,1,24.1-24.1,7.34,7.34,0,0,0,0-14.67Zm0,0a38.82,38.82,0,0,0-38.76,38.77,7.33,7.33,0,1,0,14.66,0,24,24,0,0,1,24.1-24.1,7.34,7.34,0,0,0,0-14.67Zm0,0a38.82,38.82,0,0,0-38.76,38.77,7.33,7.33,0,1,0,14.66,0,24,24,0,0,1,24.1-24.1,7.34,7.34,0,0,0,0-14.67Zm0,0a38.82,38.82,0,0,0-38.76,38.77,7.33,7.33,0,1,0,14.66,0,24,24,0,0,1,24.1-24.1,7.34,7.34,0,0,0,0-14.67Zm0,0a38.82,38.82,0,0,0-38.76,38.77,7.33,7.33,0,1,0,14.66,0,24,24,0,0,1,24.1-24.1,7.34,7.34,0,0,0,0-14.67Zm0,0a38.82,38.82,0,0,0-38.76,38.77,7.33,7.33,0,1,0,14.66,0,24,24,0,0,1,24.1-24.1,7.34,7.34,0,0,0,0-14.67Zm47.19-8.45a66.7,66.7,0,0,0-93.91-.46l-.5.46a66.8,66.8,0,1,0,94.41,0Zm-10.33,84.07A52.12,52.12,0,0,1,113.1,105.5l.49-.52a52.13,52.13,0,0,1,73.27,74.18ZM150,103.54a38.82,38.82,0,0,0-38.76,38.77,7.33,7.33,0,1,0,14.66,0,24,24,0,0,1,24.1-24.1,7.34,7.34,0,0,0,0-14.67Zm0,0a38.82,38.82,0,0,0-38.76,38.77,7.33,7.33,0,1,0,14.66,0,24,24,0,0,1,24.1-24.1,7.34,7.34,0,0,0,0-14.67Zm0,0a38.82,38.82,0,0,0-38.76,38.77,7.33,7.33,0,1,0,14.66,0,24,24,0,0,1,24.1-24.1,7.34,7.34,0,0,0,0-14.67Zm0,0a38.82,38.82,0,0,0-38.76,38.77,7.33,7.33,0,1,0,14.66,0,24,24,0,0,1,24.1-24.1,7.34,7.34,0,0,0,0-14.67Zm0,0a38.82,38.82,0,0,0-38.76,38.77,7.33,7.33,0,1,0,14.66,0,24,24,0,0,1,24.1-24.1,7.34,7.34,0,0,0,0-14.67Zm0,0a38.82,38.82,0,0,0-38.76,38.77,7.33,7.33,0,1,0,14.66,0,24,24,0,0,1,24.1-24.1,7.34,7.34,0,0,0,0-14.67Zm0,0a38.82,38.82,0,0,0-38.76,38.77,7.33,7.33,0,1,0,14.66,0,24,24,0,0,1,24.1-24.1,7.34,7.34,0,0,0,0-14.67ZM256.72,74.79H237.23a7.33,7.33,0,0,0,0,14.65h19.49a7.33,7.33,0,1,0,0-14.65ZM150,103.54a38.82,38.82,0,0,0-38.76,38.77,7.33,7.33,0,1,0,14.66,0,24,24,0,0,1,24.1-24.1,7.34,7.34,0,0,0,0-14.67Zm0,0a38.82,38.82,0,0,0-38.76,38.77,7.33,7.33,0,1,0,14.66,0,24,24,0,0,1,24.1-24.1,7.34,7.34,0,0,0,0-14.67Zm0,0a38.82,38.82,0,0,0-38.76,38.77,7.33,7.33,0,1,0,14.66,0,24,24,0,0,1,24.1-24.1,7.34,7.34,0,0,0,0-14.67Zm0,0a38.82,38.82,0,0,0-38.76,38.77,7.33,7.33,0,1,0,14.66,0,24,24,0,0,1,24.1-24.1,7.34,7.34,0,0,0,0-14.67Zm0,0a38.82,38.82,0,0,0-38.76,38.77,7.33,7.33,0,1,0,14.66,0,24,24,0,0,1,24.1-24.1,7.34,7.34,0,0,0,0-14.67Zm0,0a38.82,38.82,0,0,0-38.76,38.77,7.33,7.33,0,1,0,14.66,0,24,24,0,0,1,24.1-24.1,7.34,7.34,0,0,0,0-14.67Zm47.19-8.45a66.7,66.7,0,0,0-93.91-.46l-.5.46a66.8,66.8,0,1,0,94.41,0Zm-10.33,84.07A52.12,52.12,0,0,1,113.1,105.5l.49-.52a52.13,52.13,0,0,1,73.27,74.18ZM150,103.54a38.82,38.82,0,0,0-38.76,38.77,7.33,7.33,0,1,0,14.66,0,24,24,0,0,1,24.1-24.1,7.34,7.34,0,0,0,0-14.67Zm0,0a38.82,38.82,0,0,0-38.76,38.77,7.33,7.33,0,1,0,14.66,0,24,24,0,0,1,24.1-24.1,7.34,7.34,0,0,0,0-14.67Zm0,0a38.82,38.82,0,0,0-38.76,38.77,7.33,7.33,0,1,0,14.66,0,24,24,0,0,1,24.1-24.1,7.34,7.34,0,0,0,0-14.67Zm0,0a38.82,38.82,0,0,0-38.76,38.77,7.33,7.33,0,1,0,14.66,0,24,24,0,0,1,24.1-24.1,7.34,7.34,0,0,0,0-14.67Zm0,0a38.82,38.82,0,0,0-38.76,38.77,7.33,7.33,0,1,0,14.66,0,24,24,0,0,1,24.1-24.1,7.34,7.34,0,0,0,0-14.67Zm0,0a38.82,38.82,0,0,0-38.76,38.77,7.33,7.33,0,1,0,14.66,0,24,24,0,0,1,24.1-24.1,7.34,7.34,0,0,0,0-14.67Zm0,0a38.82,38.82,0,0,0-38.76,38.77,7.33,7.33,0,1,0,14.66,0,24,24,0,0,1,24.1-24.1,7.34,7.34,0,0,0,0-14.67Zm0,0a38.82,38.82,0,0,0-38.76,38.77,7.33,7.33,0,1,0,14.66,0,24,24,0,0,1,24.1-24.1,7.34,7.34,0,0,0,0-14.67Zm0,0a38.82,38.82,0,0,0-38.76,38.77,7.33,7.33,0,1,0,14.66,0,24,24,0,0,1,24.1-24.1,7.34,7.34,0,0,0,0-14.67Zm0,0a38.82,38.82,0,0,0-38.76,38.77,7.33,7.33,0,1,0,14.66,0,24,24,0,0,1,24.1-24.1,7.34,7.34,0,0,0,0-14.67Zm0,0a38.82,38.82,0,0,0-38.76,38.77,7.33,7.33,0,1,0,14.66,0,24,24,0,0,1,24.1-24.1,7.34,7.34,0,0,0,0-14.67Zm0,0a38.82,38.82,0,0,0-38.76,38.77,7.33,7.33,0,1,0,14.66,0,24,24,0,0,1,24.1-24.1,7.34,7.34,0,0,0,0-14.67Zm0,0a38.82,38.82,0,0,0-38.76,38.77,7.33,7.33,0,1,0,14.66,0,24,24,0,0,1,24.1-24.1,7.34,7.34,0,0,0,0-14.67Zm47.19-8.45a66.7,66.7,0,0,0-93.91-.46l-.5.46a66.8,66.8,0,1,0,94.41,0Zm-10.33,84.07A52.12,52.12,0,0,1,113.1,105.5l.49-.52a52.13,52.13,0,0,1,73.27,74.18ZM150,103.54a38.82,38.82,0,0,0-38.76,38.77,7.33,7.33,0,1,0,14.66,0,24,24,0,0,1,24.1-24.1,7.34,7.34,0,0,0,0-14.67Zm0,0a38.82,38.82,0,0,0-38.76,38.77,7.33,7.33,0,1,0,14.66,0,24,24,0,0,1,24.1-24.1,7.34,7.34,0,0,0,0-14.67Zm0,0a38.82,38.82,0,0,0-38.76,38.77,7.33,7.33,0,1,0,14.66,0,24,24,0,0,1,24.1-24.1,7.34,7.34,0,0,0,0-14.67Zm0,0a38.82,38.82,0,0,0-38.76,38.77,7.33,7.33,0,1,0,14.66,0,24,24,0,0,1,24.1-24.1,7.34,7.34,0,0,0,0-14.67Zm0,0a38.82,38.82,0,0,0-38.76,38.77,7.33,7.33,0,1,0,14.66,0,24,24,0,0,1,24.1-24.1,7.34,7.34,0,0,0,0-14.67ZM256.72,74.79H237.23a7.33,7.33,0,0,0,0,14.65h19.49a7.33,7.33,0,1,0,0-14.65Zm0,0H237.23a7.33,7.33,0,0,0,0,14.65h19.49a7.33,7.33,0,1,0,0-14.65ZM150,103.54a38.82,38.82,0,0,0-38.76,38.77,7.33,7.33,0,1,0,14.66,0,24,24,0,0,1,24.1-24.1,7.34,7.34,0,0,0,0-14.67Zm0,0a38.82,38.82,0,0,0-38.76,38.77,7.33,7.33,0,1,0,14.66,0,24,24,0,0,1,24.1-24.1,7.34,7.34,0,0,0,0-14.67Zm0,0a38.82,38.82,0,0,0-38.76,38.77,7.33,7.33,0,1,0,14.66,0,24,24,0,0,1,24.1-24.1,7.34,7.34,0,0,0,0-14.67Zm0,0a38.82,38.82,0,0,0-38.76,38.77,7.33,7.33,0,1,0,14.66,0,24,24,0,0,1,24.1-24.1,7.34,7.34,0,0,0,0-14.67Zm47.19-8.45a66.7,66.7,0,0,0-93.91-.46l-.5.46a66.8,66.8,0,1,0,94.41,0Zm-10.33,84.07A52.12,52.12,0,0,1,113.1,105.5l.49-.52a52.13,52.13,0,0,1,73.27,74.18ZM150,103.54a38.82,38.82,0,0,0-38.76,38.77,7.33,7.33,0,1,0,14.66,0,24,24,0,0,1,24.1-24.1,7.34,7.34,0,0,0,0-14.67Zm0,0a38.82,38.82,0,0,0-38.76,38.77,7.33,7.33,0,1,0,14.66,0,24,24,0,0,1,24.1-24.1,7.34,7.34,0,0,0,0-14.67Zm0,0a38.82,38.82,0,0,0-38.76,38.77,7.33,7.33,0,1,0,14.66,0,24,24,0,0,1,24.1-24.1,7.34,7.34,0,0,0,0-14.67Zm0,0a38.82,38.82,0,0,0-38.76,38.77,7.33,7.33,0,1,0,14.66,0,24,24,0,0,1,24.1-24.1,7.34,7.34,0,0,0,0-14.67Zm0,0a38.82,38.82,0,0,0-38.76,38.77,7.33,7.33,0,1,0,14.66,0,24,24,0,0,1,24.1-24.1,7.34,7.34,0,0,0,0-14.67Zm0,0a38.82,38.82,0,0,0-38.76,38.77,7.33,7.33,0,1,0,14.66,0,24,24,0,0,1,24.1-24.1,7.34,7.34,0,0,0,0-14.67Zm0,0a38.82,38.82,0,0,0-38.76,38.77,7.33,7.33,0,1,0,14.66,0,24,24,0,0,1,24.1-24.1,7.34,7.34,0,0,0,0-14.67Zm0,0a38.82,38.82,0,0,0-38.76,38.77,7.33,7.33,0,1,0,14.66,0,24,24,0,0,1,24.1-24.1,7.34,7.34,0,0,0,0-14.67Zm0,0a38.82,38.82,0,0,0-38.76,38.77,7.33,7.33,0,1,0,14.66,0,24,24,0,0,1,24.1-24.1,7.34,7.34,0,0,0,0-14.67Zm47.19-8.45a66.7,66.7,0,0,0-93.91-.46l-.5.46a66.8,66.8,0,1,0,94.41,0Zm-10.33,84.07A52.12,52.12,0,0,1,113.1,105.5l.49-.52a52.13,52.13,0,0,1,73.27,74.18ZM150,103.54a38.82,38.82,0,0,0-38.76,38.77,7.33,7.33,0,1,0,14.66,0,24,24,0,0,1,24.1-24.1,7.34,7.34,0,0,0,0-14.67Zm0,0a38.82,38.82,0,0,0-38.76,38.77,7.33,7.33,0,1,0,14.66,0,24,24,0,0,1,24.1-24.1,7.34,7.34,0,0,0,0-14.67Zm0,0a38.82,38.82,0,0,0-38.76,38.77,7.33,7.33,0,1,0,14.66,0,24,24,0,0,1,24.1-24.1,7.34,7.34,0,0,0,0-14.67ZM256.72,74.79H237.23a7.33,7.33,0,0,0,0,14.65h19.49a7.33,7.33,0,1,0,0-14.65Zm0,0H237.23a7.33,7.33,0,0,0,0,14.65h19.49a7.33,7.33,0,1,0,0-14.65ZM150,103.54a38.82,38.82,0,0,0-38.76,38.77,7.33,7.33,0,1,0,14.66,0,24,24,0,0,1,24.1-24.1,7.34,7.34,0,0,0,0-14.67Zm0,0a38.82,38.82,0,0,0-38.76,38.77,7.33,7.33,0,1,0,14.66,0,24,24,0,0,1,24.1-24.1,7.34,7.34,0,0,0,0-14.67Zm47.19-8.45a66.7,66.7,0,0,0-93.91-.46l-.5.46a66.8,66.8,0,1,0,94.41,0Zm-10.33,84.07A52.12,52.12,0,0,1,113.1,105.5l.49-.52a52.13,52.13,0,0,1,73.27,74.18ZM150,103.54a38.82,38.82,0,0,0-38.76,38.77,7.33,7.33,0,1,0,14.66,0,24,24,0,0,1,24.1-24.1,7.34,7.34,0,0,0,0-14.67Zm0,0a38.82,38.82,0,0,0-38.76,38.77,7.33,7.33,0,1,0,14.66,0,24,24,0,0,1,24.1-24.1,7.34,7.34,0,0,0,0-14.67Zm0,0a38.82,38.82,0,0,0-38.76,38.77,7.33,7.33,0,1,0,14.66,0,24,24,0,0,1,24.1-24.1,7.34,7.34,0,0,0,0-14.67Zm0,0a38.82,38.82,0,0,0-38.76,38.77,7.33,7.33,0,1,0,14.66,0,24,24,0,0,1,24.1-24.1,7.34,7.34,0,0,0,0-14.67Zm0,0a38.82,38.82,0,0,0-38.76,38.77,7.33,7.33,0,1,0,14.66,0,24,24,0,0,1,24.1-24.1,7.34,7.34,0,0,0,0-14.67Zm47.19-8.45a66.7,66.7,0,0,0-93.91-.46l-.5.46a66.8,66.8,0,1,0,94.41,0Zm-10.33,84.07A52.12,52.12,0,0,1,113.1,105.5l.49-.52a52.13,52.13,0,0,1,73.27,74.18ZM150,103.54a38.82,38.82,0,0,0-38.76,38.77,7.33,7.33,0,1,0,14.66,0,24,24,0,0,1,24.1-24.1,7.34,7.34,0,0,0,0-14.67ZM256.72,74.79H237.23a7.33,7.33,0,0,0,0,14.65h19.49a7.33,7.33,0,1,0,0-14.65Zm0,0H237.23a7.33,7.33,0,0,0,0,14.65h19.49a7.33,7.33,0,1,0,0-14.65ZM150,75.53a66.44,66.44,0,0,0-46.72,19.1l-.5.46A66.74,66.74,0,1,0,150,75.53Zm36.86,103.63A52.12,52.12,0,0,1,113.1,105.5l.49-.52a52.13,52.13,0,0,1,73.27,74.18ZM150,103.54a38.82,38.82,0,0,0-38.76,38.77,7.33,7.33,0,1,0,14.66,0,24,24,0,0,1,24.1-24.1,7.34,7.34,0,0,0,0-14.67Zm139.55-50a35.34,35.34,0,0,0-25.14-10.45H227.32L204.84,3.73A7.41,7.41,0,0,0,198.49,0h-97A7.37,7.37,0,0,0,94.9,4.2l0,.07L72.69,43.12H35.59A35.68,35.68,0,0,0,0,78.72V205.9a35.68,35.68,0,0,0,35.59,35.59H264.41A35.68,35.68,0,0,0,300,205.9V78.72A35.35,35.35,0,0,0,289.55,53.57ZM105.75,14.66h88.51l16.25,28.46H89.5ZM285.34,205.9a21,21,0,0,1-20.93,20.93H35.59A21,21,0,0,1,14.66,205.9V78.72A21,21,0,0,1,35.59,57.79H264.41a21,21,0,0,1,20.93,20.93ZM256.72,74.79H237.23a7.33,7.33,0,0,0,0,14.65h19.49a7.33,7.33,0,1,0,0-14.65ZM150,75.53a66.44,66.44,0,0,0-46.72,19.1l-.5.46A66.74,66.74,0,1,0,150,75.53Zm36.86,103.63A52.12,52.12,0,0,1,113.1,105.5l.49-.52a52.13,52.13,0,0,1,73.27,74.18ZM150,103.54a38.82,38.82,0,0,0-38.76,38.77,7.33,7.33,0,1,0,14.66,0,24,24,0,0,1,24.1-24.1,7.34,7.34,0,0,0,0-14.67Zm0,0a38.82,38.82,0,0,0-38.76,38.77,7.33,7.33,0,1,0,14.66,0,24,24,0,0,1,24.1-24.1,7.34,7.34,0,0,0,0-14.67Zm0,0a38.82,38.82,0,0,0-38.76,38.77,7.33,7.33,0,1,0,14.66,0,24,24,0,0,1,24.1-24.1,7.34,7.34,0,0,0,0-14.67Zm47.19-8.45a66.7,66.7,0,0,0-93.91-.46l-.5.46a66.8,66.8,0,1,0,94.41,0Zm-10.33,84.07A52.12,52.12,0,0,1,113.1,105.5l.49-.52a52.13,52.13,0,0,1,73.27,74.18ZM150,103.54a38.82,38.82,0,0,0-38.76,38.77,7.33,7.33,0,1,0,14.66,0,24,24,0,0,1,24.1-24.1,7.34,7.34,0,0,0,0-14.67ZM256.72,74.79H237.23a7.33,7.33,0,0,0,0,14.65h19.49a7.33,7.33,0,1,0,0-14.65Zm0,0H237.23a7.33,7.33,0,0,0,0,14.65h19.49a7.33,7.33,0,1,0,0-14.65ZM150,103.54a38.82,38.82,0,0,0-38.76,38.77,7.33,7.33,0,1,0,14.66,0,24,24,0,0,1,24.1-24.1,7.34,7.34,0,0,0,0-14.67Zm0,0a38.82,38.82,0,0,0-38.76,38.77,7.33,7.33,0,1,0,14.66,0,24,24,0,0,1,24.1-24.1,7.34,7.34,0,0,0,0-14.67Zm47.19-8.45a66.7,66.7,0,0,0-93.91-.46l-.5.46a66.8,66.8,0,1,0,94.41,0Zm-10.33,84.07A52.12,52.12,0,0,1,113.1,105.5l.49-.52a52.13,52.13,0,0,1,73.27,74.18ZM150,103.54a38.82,38.82,0,0,0-38.76,38.77,7.33,7.33,0,1,0,14.66,0,24,24,0,0,1,24.1-24.1,7.34,7.34,0,0,0,0-14.67Zm0,0a38.82,38.82,0,0,0-38.76,38.77,7.33,7.33,0,1,0,14.66,0,24,24,0,0,1,24.1-24.1,7.34,7.34,0,0,0,0-14.67Zm0,0a38.82,38.82,0,0,0-38.76,38.77,7.33,7.33,0,1,0,14.66,0,24,24,0,0,1,24.1-24.1,7.34,7.34,0,0,0,0-14.67Zm0,0a38.82,38.82,0,0,0-38.76,38.77,7.33,7.33,0,1,0,14.66,0,24,24,0,0,1,24.1-24.1,7.34,7.34,0,0,0,0-14.67Zm0,0a38.82,38.82,0,0,0-38.76,38.77,7.33,7.33,0,1,0,14.66,0,24,24,0,0,1,24.1-24.1,7.34,7.34,0,0,0,0-14.67Zm0,0a38.82,38.82,0,0,0-38.76,38.77,7.33,7.33,0,1,0,14.66,0,24,24,0,0,1,24.1-24.1,7.34,7.34,0,0,0,0-14.67Zm0,0a38.82,38.82,0,0,0-38.76,38.77,7.33,7.33,0,1,0,14.66,0,24,24,0,0,1,24.1-24.1,7.34,7.34,0,0,0,0-14.67Zm47.19-8.45a66.7,66.7,0,0,0-93.91-.46l-.5.46a66.8,66.8,0,1,0,94.41,0Zm-10.33,84.07A52.12,52.12,0,0,1,113.1,105.5l.49-.52a52.13,52.13,0,0,1,73.27,74.18ZM150,103.54a38.82,38.82,0,0,0-38.76,38.77,7.33,7.33,0,1,0,14.66,0,24,24,0,0,1,24.1-24.1,7.34,7.34,0,0,0,0-14.67Zm0,0a38.82,38.82,0,0,0-38.76,38.77,7.33,7.33,0,1,0,14.66,0,24,24,0,0,1,24.1-24.1,7.34,7.34,0,0,0,0-14.67Zm0,0a38.82,38.82,0,0,0-38.76,38.77,7.33,7.33,0,1,0,14.66,0,24,24,0,0,1,24.1-24.1,7.34,7.34,0,0,0,0-14.67ZM256.72,74.79H237.23a7.33,7.33,0,0,0,0,14.65h19.49a7.33,7.33,0,1,0,0-14.65Zm0,0H237.23a7.33,7.33,0,0,0,0,14.65h19.49a7.33,7.33,0,1,0,0-14.65ZM150,103.54a38.82,38.82,0,0,0-38.76,38.77,7.33,7.33,0,1,0,14.66,0,24,24,0,0,1,24.1-24.1,7.34,7.34,0,0,0,0-14.67Zm0,0a38.82,38.82,0,0,0-38.76,38.77,7.33,7.33,0,1,0,14.66,0,24,24,0,0,1,24.1-24.1,7.34,7.34,0,0,0,0-14.67Zm0,0a38.82,38.82,0,0,0-38.76,38.77,7.33,7.33,0,1,0,14.66,0,24,24,0,0,1,24.1-24.1,7.34,7.34,0,0,0,0-14.67Zm0,0a38.82,38.82,0,0,0-38.76,38.77,7.33,7.33,0,1,0,14.66,0,24,24,0,0,1,24.1-24.1,7.34,7.34,0,0,0,0-14.67Zm47.19-8.45a66.7,66.7,0,0,0-93.91-.46l-.5.46a66.8,66.8,0,1,0,94.41,0Zm-10.33,84.07A52.12,52.12,0,0,1,113.1,105.5l.49-.52a52.13,52.13,0,0,1,73.27,74.18ZM150,103.54a38.82,38.82,0,0,0-38.76,38.77,7.33,7.33,0,1,0,14.66,0,24,24,0,0,1,24.1-24.1,7.34,7.34,0,0,0,0-14.67Zm0,0a38.82,38.82,0,0,0-38.76,38.77,7.33,7.33,0,1,0,14.66,0,24,24,0,0,1,24.1-24.1,7.34,7.34,0,0,0,0-14.67Zm0,0a38.82,38.82,0,0,0-38.76,38.77,7.33,7.33,0,1,0,14.66,0,24,24,0,0,1,24.1-24.1,7.34,7.34,0,0,0,0-14.67Zm0,0a38.82,38.82,0,0,0-38.76,38.77,7.33,7.33,0,1,0,14.66,0,24,24,0,0,1,24.1-24.1,7.34,7.34,0,0,0,0-14.67Zm0,0a38.82,38.82,0,0,0-38.76,38.77,7.33,7.33,0,1,0,14.66,0,24,24,0,0,1,24.1-24.1,7.34,7.34,0,0,0,0-14.67Zm0,0a38.82,38.82,0,0,0-38.76,38.77,7.33,7.33,0,1,0,14.66,0,24,24,0,0,1,24.1-24.1,7.34,7.34,0,0,0,0-14.67Zm0,0a38.82,38.82,0,0,0-38.76,38.77,7.33,7.33,0,1,0,14.66,0,24,24,0,0,1,24.1-24.1,7.34,7.34,0,0,0,0-14.67Zm0,0a38.82,38.82,0,0,0-38.76,38.77,7.33,7.33,0,1,0,14.66,0,24,24,0,0,1,24.1-24.1,7.34,7.34,0,0,0,0-14.67Zm0,0a38.82,38.82,0,0,0-38.76,38.77,7.33,7.33,0,1,0,14.66,0,24,24,0,0,1,24.1-24.1,7.34,7.34,0,0,0,0-14.67Zm0,0a38.82,38.82,0,0,0-38.76,38.77,7.33,7.33,0,1,0,14.66,0,24,24,0,0,1,24.1-24.1,7.34,7.34,0,0,0,0-14.67Zm0,0a38.82,38.82,0,0,0-38.76,38.77,7.33,7.33,0,1,0,14.66,0,24,24,0,0,1,24.1-24.1,7.34,7.34,0,0,0,0-14.67Zm47.19-8.45a66.7,66.7,0,0,0-93.91-.46l-.5.46a66.8,66.8,0,1,0,94.41,0Zm-10.33,84.07A52.12,52.12,0,0,1,113.1,105.5l.49-.52a52.13,52.13,0,0,1,73.27,74.18ZM150,103.54a38.82,38.82,0,0,0-38.76,38.77,7.33,7.33,0,1,0,14.66,0,24,24,0,0,1,24.1-24.1,7.34,7.34,0,0,0,0-14.67Zm0,0a38.82,38.82,0,0,0-38.76,38.77,7.33,7.33,0,1,0,14.66,0,24,24,0,0,1,24.1-24.1,7.34,7.34,0,0,0,0-14.67Zm0,0a38.82,38.82,0,0,0-38.76,38.77,7.33,7.33,0,1,0,14.66,0,24,24,0,0,1,24.1-24.1,7.34,7.34,0,0,0,0-14.67Zm0,0a38.82,38.82,0,0,0-38.76,38.77,7.33,7.33,0,1,0,14.66,0,24,24,0,0,1,24.1-24.1,7.34,7.34,0,0,0,0-14.67Zm0,0a38.82,38.82,0,0,0-38.76,38.77,7.33,7.33,0,1,0,14.66,0,24,24,0,0,1,24.1-24.1,7.34,7.34,0,0,0,0-14.67ZM256.72,74.79H237.23a7.33,7.33,0,0,0,0,14.65h19.49a7.33,7.33,0,1,0,0-14.65Zm0,0H237.23a7.33,7.33,0,0,0,0,14.65h19.49a7.33,7.33,0,1,0,0-14.65ZM150,103.54a38.82,38.82,0,0,0-38.76,38.77,7.33,7.33,0,1,0,14.66,0,24,24,0,0,1,24.1-24.1,7.34,7.34,0,0,0,0-14.67Zm0,0a38.82,38.82,0,0,0-38.76,38.77,7.33,7.33,0,1,0,14.66,0,24,24,0,0,1,24.1-24.1,7.34,7.34,0,0,0,0-14.67Zm0,0a38.82,38.82,0,0,0-38.76,38.77,7.33,7.33,0,1,0,14.66,0,24,24,0,0,1,24.1-24.1,7.34,7.34,0,0,0,0-14.67Zm0,0a38.82,38.82,0,0,0-38.76,38.77,7.33,7.33,0,1,0,14.66,0,24,24,0,0,1,24.1-24.1,7.34,7.34,0,0,0,0-14.67Zm0,0a38.82,38.82,0,0,0-38.76,38.77,7.33,7.33,0,1,0,14.66,0,24,24,0,0,1,24.1-24.1,7.34,7.34,0,0,0,0-14.67Zm0,0a38.82,38.82,0,0,0-38.76,38.77,7.33,7.33,0,1,0,14.66,0,24,24,0,0,1,24.1-24.1,7.34,7.34,0,0,0,0-14.67Zm47.19-8.45a66.7,66.7,0,0,0-93.91-.46l-.5.46a66.8,66.8,0,1,0,94.41,0Zm-10.33,84.07A52.12,52.12,0,0,1,113.1,105.5l.49-.52a52.13,52.13,0,0,1,73.27,74.18ZM150,103.54a38.82,38.82,0,0,0-38.76,38.77,7.33,7.33,0,1,0,14.66,0,24,24,0,0,1,24.1-24.1,7.34,7.34,0,0,0,0-14.67Zm0,0a38.82,38.82,0,0,0-38.76,38.77,7.33,7.33,0,1,0,14.66,0,24,24,0,0,1,24.1-24.1,7.34,7.34,0,0,0,0-14.67Zm0,0a38.82,38.82,0,0,0-38.76,38.77,7.33,7.33,0,1,0,14.66,0,24,24,0,0,1,24.1-24.1,7.34,7.34,0,0,0,0-14.67Zm0,0a38.82,38.82,0,0,0-38.76,38.77,7.33,7.33,0,1,0,14.66,0,24,24,0,0,1,24.1-24.1,7.34,7.34,0,0,0,0-14.67Zm0,0a38.82,38.82,0,0,0-38.76,38.77,7.33,7.33,0,1,0,14.66,0,24,24,0,0,1,24.1-24.1,7.34,7.34,0,0,0,0-14.67Zm0,0a38.82,38.82,0,0,0-38.76,38.77,7.33,7.33,0,1,0,14.66,0,24,24,0,0,1,24.1-24.1,7.34,7.34,0,0,0,0-14.67Zm0,0a38.82,38.82,0,0,0-38.76,38.77,7.33,7.33,0,1,0,14.66,0,24,24,0,0,1,24.1-24.1,7.34,7.34,0,0,0,0-14.67Z"/></svg>