<svg id="Layer_1" data-name="Layer 1" xmlns="http://www.w3.org/2000/svg" viewBox="0 0 23.73 15"><defs><style>.cls-1{fill:#fe77aa;}</style></defs><path class="cls-1" d="M11.87,15A13.69,13.69,0,0,1,.19,8.2a1.38,1.38,0,0,1,0-1.39A13.68,13.68,0,0,1,11.87,0,13.68,13.68,0,0,1,23.54,6.8a1.35,1.35,0,0,1,0,1.4A13.68,13.68,0,0,1,11.87,15ZM1.45,6.69a1.45,1.45,0,0,0,0,1.62A12.65,12.65,0,0,0,11.87,14,12.62,12.62,0,0,0,22.28,8.31a1.41,1.41,0,0,0,0-1.62A12.62,12.62,0,0,0,11.87,1,12.65,12.65,0,0,0,1.45,6.69Z"/><path class="cls-1" d="M11.87,11.5a4,4,0,1,1,4-4A4,4,0,0,1,11.87,11.5Zm0-7a3,3,0,1,0,3,3A3,3,0,0,0,11.87,4.5Z"/></svg>