<svg id="Layer_1" data-name="Layer 1" xmlns="http://www.w3.org/2000/svg" viewBox="0 0 300 260.24"><defs><style>.cls-1{fill:#f0f0f0;}</style></defs><path class="cls-1" d="M294.81,93.27a20,20,0,0,0-15.41-7V70.33a32.52,32.52,0,0,0-32.66-32.66H161.06a19.32,19.32,0,0,1-16.43-9.45l-7.12-12.13A33.37,33.37,0,0,0,109.29,0H53.2A32.59,32.59,0,0,0,29.44,10.27a33,33,0,0,0-9,24.31l2.33,51.71H20.54A20.44,20.44,0,0,0,.2,109.57L17.11,231.82a33.07,33.07,0,0,0,32.53,28.42H250.5a33.15,33.15,0,0,0,32.6-28.56l16.71-122.11A20.54,20.54,0,0,0,294.81,93.27ZM39.3,19.79A19.05,19.05,0,0,1,53.13,13.7h56.09a19.33,19.33,0,0,1,16.44,9.45l7.12,12.12A33.19,33.19,0,0,0,161,51.43h85.67a18.84,18.84,0,0,1,19,19V86.29H36.42L34,34A19.53,19.53,0,0,1,39.3,19.79Zm247,87.87L269.54,229.83a19.36,19.36,0,0,1-19,16.71H49.71a19.36,19.36,0,0,1-19-16.64l-17-122.18a7.63,7.63,0,0,1,1.64-5.41A6.73,6.73,0,0,1,20.47,100h259a6.5,6.5,0,0,1,5.14,2.32A6.4,6.4,0,0,1,286.25,107.66Z"/><path class="cls-1" d="M155,122.52a6.8,6.8,0,0,0-10,0l-40.13,43.07a6.83,6.83,0,0,0,10,9.32l28.21-30.34v74.78a6.85,6.85,0,0,0,13.7,0V144.57L185,174.91a6.83,6.83,0,1,0,10-9.32Z"/></svg>