<svg id="Layer_1" data-name="Layer 1" xmlns="http://www.w3.org/2000/svg" viewBox="0 0 53.5 72.84"><defs><style>.cls-1{fill:#f0f0f0;}</style></defs><path class="cls-1" d="M53.5,11.84V61A11.51,11.51,0,0,1,42,72.49H11.53a11.41,11.41,0,0,1-8.16-3.41A11.25,11.25,0,0,1,0,61V56.74a2,2,0,0,1,2-2,2,2,0,0,1,2,2V61a7.48,7.48,0,0,0,7.47,7.47H42A7.48,7.48,0,0,0,49.48,61V11.84A7.49,7.49,0,0,0,42,4.37H11.53a7.48,7.48,0,0,0-7.47,7.47V14a2,2,0,0,1-2,2,2,2,0,0,1-2-2V11.84A11.5,11.5,0,0,1,11.53.35H42A11.51,11.51,0,0,1,53.5,11.84Z"/><path class="cls-1" d="M19.81,23.63,7.38,34.42H34.54a2,2,0,0,1,2,2,2,2,0,0,1-2,2H7.39L19.8,49.19A2,2,0,0,1,20,52a2.08,2.08,0,0,1-1.55.71,2.13,2.13,0,0,1-1.28-.44L.7,38A2,2,0,0,1,0,36.42a2,2,0,0,1,.66-1.51L17.14,20.6a2.1,2.1,0,0,1,1.34-.5,2,2,0,0,1,1.5.69A2,2,0,0,1,19.81,23.63Z"/></svg>