<svg id="Layer_1" data-name="Layer 1" xmlns="http://www.w3.org/2000/svg" viewBox="0 0 123.6 102.3"><defs><style>.cls-1{fill:#ee247c;}</style></defs><path class="cls-1" d="M97.4,7.1a1.88,1.88,0,0,0-.2-.8l4.4,4.4a2,2,0,0,1,.6,1.4v7.3a2,2,0,0,0,2,2h7.3a2,2,0,0,1,1.4.6l4.4,4.4a2.39,2.39,0,0,0-.9-.2H103.3a5.91,5.91,0,0,1-5.9-5.9ZM20.3,26.2a5.91,5.91,0,0,0,5.9-5.9V7.1a1.88,1.88,0,0,1,.2-.8L22,10.7a2,2,0,0,0-.6,1.4v7.3a2,2,0,0,1-2,2H12.1a2,2,0,0,0-1.4.6L6.3,26.4a2.39,2.39,0,0,1,.9-.2ZM81.8,60.7a6.51,6.51,0,0,0,2.6,2.6,7.4,7.4,0,0,0,3.6.9h29.7a5.91,5.91,0,0,0,5.9-5.9V33.5a2,2,0,0,0-.6-1.4l-4.4-4.4a2.35,2.35,0,0,1,.2.8V57.1a2,2,0,0,1-.7,1.6,2.13,2.13,0,0,1-1.6.7H88a2,2,0,0,1-1.6-.7,2.13,2.13,0,0,1-.7-1.6V43.9A5.91,5.91,0,0,0,79.8,38H66.7a2,2,0,0,1-1.6-.7,2.13,2.13,0,0,1-.7-1.6V7.1a2,2,0,0,1,.7-1.6,2.13,2.13,0,0,1,1.6-.7H95.2a2.92,2.92,0,0,1,.9.2L91.7.6A2,2,0,0,0,90.3,0H66.1a2.31,2.31,0,0,0-2,1.1l-.7,1.3-.6.7a1.13,1.13,0,0,1-2,0l-.4-.7-.7-1.3a2.31,2.31,0,0,0-2-1.1H33.5a2,2,0,0,0-1.4.6L27.7,5a2.39,2.39,0,0,1,.9-.2H57.1a2,2,0,0,1,1.6.7,2.13,2.13,0,0,1,.7,1.6V35.6a2,2,0,0,1-.7,1.6,2.13,2.13,0,0,1-1.6.7H43.9A5.91,5.91,0,0,0,38,43.8V57.1a2,2,0,0,1-.7,1.6,2.13,2.13,0,0,1-1.6.7H7.1a2,2,0,0,1-1.6-.7,2.13,2.13,0,0,1-.7-1.6V28.5a1.88,1.88,0,0,1,.2-.8L.6,32.1A2,2,0,0,0,0,33.5V58.3a5.91,5.91,0,0,0,5.9,5.9H35.6a7.4,7.4,0,0,0,3.6-.9,6.51,6.51,0,0,0,2.6-2.6,7.49,7.49,0,0,0,1-3.6V44.8a2,2,0,0,1,2-2H57.1a2,2,0,0,1,1.6.7,2.57,2.57,0,0,1,.7,1.6V73.6a2,2,0,0,1-.7,1.6,2.13,2.13,0,0,1-1.6.7H43.9A5.91,5.91,0,0,0,38,81.8V95.1a2,2,0,0,1-.7,1.6,2.13,2.13,0,0,1-1.6.7H7.1a2,2,0,0,1-1.6-.7,2.13,2.13,0,0,1-.7-1.6V66.6a1.88,1.88,0,0,1,.2-.8L.6,70.2A2,2,0,0,0,0,71.6V96.4a5.91,5.91,0,0,0,5.9,5.9H35.6a7.4,7.4,0,0,0,3.6-.9,6.51,6.51,0,0,0,2.6-2.6,7.49,7.49,0,0,0,1-3.6V82.9a2,2,0,0,1,2-2h34a2,2,0,0,1,2,2V95.1a7.29,7.29,0,0,0,3.6,6.2,7.4,7.4,0,0,0,3.6.9h29.7a5.91,5.91,0,0,0,5.9-5.9V71.5a2,2,0,0,0-.6-1.4l-4.4-4.4a2.35,2.35,0,0,1,.2.8V95.1a2,2,0,0,1-.7,1.6,2.13,2.13,0,0,1-1.6.7H88a2.14,2.14,0,0,1-1.7-.8,2.2,2.2,0,0,1-.6-1.5V82a5.91,5.91,0,0,0-5.9-5.9H66.7a2.14,2.14,0,0,1-1.7-.8,2.2,2.2,0,0,1-.6-1.5V45.1a2,2,0,0,1,.7-1.6,2.13,2.13,0,0,1,1.6-.7H78.8a2,2,0,0,1,2,2V57.1A6.53,6.53,0,0,0,81.8,60.7Z"/></svg>