<svg id="Layer_1" data-name="Layer 1" xmlns="http://www.w3.org/2000/svg" viewBox="0 0 84 88"><defs><style>.cls-1{fill:#ee247c;}</style></defs><path class="cls-1" d="M22,0a6,6,0,0,0-6,6v4H8a8,8,0,0,0-8,8V80a8,8,0,0,0,8,8H76a8,8,0,0,0,8-8V18a8,8,0,0,0-8-8H68V6A6,6,0,0,0,56,6v4H28V6A6,6,0,0,0,22,0Zm0,4a2,2,0,0,1,2,2V18a2,2,0,0,1-4,0V6A2,2,0,0,1,22,4ZM62,4a2,2,0,0,1,2,2V18a2,2,0,0,1-4,0V6A2,2,0,0,1,62,4ZM8,14h8v4a6,6,0,0,0,12,0V14H56v4a6,6,0,0,0,12,0V14h8a4,4,0,0,1,4,4V32H4V18A4,4,0,0,1,8,14ZM4,36H80V80a4,4,0,0,1-4,4H8a4,4,0,0,1-4-4Zm11,5a2,2,0,0,0-2,2V55a2,2,0,0,0,2,2H27a2,2,0,0,0,2-2V43a2,2,0,0,0-2-2Zm21,0a2,2,0,0,0-2,2V55a2,2,0,0,0,2,2H48a2,2,0,0,0,2-2V43a2,2,0,0,0-2-2Zm21,0a2,2,0,0,0-2,2V55a2,2,0,0,0,2,2H69a2,2,0,0,0,2-2V43a2,2,0,0,0-2-2ZM17,45h8v8H17Zm21,0h8v8H38Zm21,0h8v8H59ZM15,63a2,2,0,0,0-2,2V77a2,2,0,0,0,2,2H27a2,2,0,0,0,2-2V65a2,2,0,0,0-2-2Zm21,0a2,2,0,0,0-2,2V77a2,2,0,0,0,2,2H48a2,2,0,0,0,2-2V65a2,2,0,0,0-2-2Zm21,0a2,2,0,0,0-2,2V77a2,2,0,0,0,2,2H69a2,2,0,0,0,2-2V65a2,2,0,0,0-2-2ZM17,67h8v8H17Zm21,0h8v8H38Zm21,0h8v8H59Z"/></svg>