<svg id="Layer_1" data-name="Layer 1" xmlns="http://www.w3.org/2000/svg" viewBox="0 0 95.63 96"><defs><style>.cls-1{fill:#ee247c;}</style></defs><path class="cls-1" d="M49.11,56.76c-5.13,3.28-9.35,5-15.49,5.5C-8.11,64.41-12.56,3.92,29.1.08,54.92-1.79,71.82,28.69,56.43,49.52c1.73,2,3.76,3.68,5.48,5.66C65.72,51.87,69.46,57.44,72,60l11.2,11.2c2.74,2.72,8.7,8.08,10.83,11.09A8.7,8.7,0,0,1,87.16,96c-5.52.21-8.35-5.1-12.06-8.3l-18-18.06c-2.34-2.32-4.2-3.92-2.28-7.28C53,60.41,51,58.6,49.11,56.76ZM28.82,2.87a28.54,28.54,0,1,0,17.9,4.68,28.45,28.45,0,0,0-17.9-4.68Zm25.94,49C53.68,52.9,52.59,54,51.43,55c1.7,1.91,3.69,3.57,5.47,5.39,1-1.15,2.25-2.06,3.13-3.28-1.54-1.41-3.89-3.7-5.27-5.27Zm9.52,5.27c-.84.41-6,5.68-6.86,6.69-1.42,1.6.27,2.41,1.39,3.52C60.47,65.61,65,60.87,67,59.1c-.78-.86-1.42-2.16-2.72-2Zm4.73,4c-2.47,2.68-5.56,5.61-8.18,8.2,2.1,2.22,16.47,16.39,18.92,18.91,1.44,1.43,3.33,3.92,5.27,4.61h0a5.87,5.87,0,0,0,6.22-9.53C87.37,79.55,73,64.85,69,61.12Z"/><path class="cls-1" d="M32.3,55.22a24,24,0,1,1,14-5.49,24,24,0,0,1-14,5.49Zm-3-45a21.26,21.26,0,1,0,13.34,3.45A21.16,21.16,0,0,0,29.32,10.2Z"/><path class="cls-1" d="M15.65,32.92c-5.45,2.61-1.2-19.05,14.81-19,2.74,0,3.06,2,1.49,2.6h0a9.51,9.51,0,0,1-2.38.21A14.8,14.8,0,0,0,16.48,28.55c-.24,1.3.13,3.39-.83,4.37Z"/></svg>