<svg id="Layer_1" data-name="Layer 1" xmlns="http://www.w3.org/2000/svg" viewBox="0 0 75 93.73"><defs><style>.cls-1{fill:#ee247c;}</style></defs><path class="cls-1" d="M70.3,6.25H68.73V4.69A4.7,4.7,0,0,0,64.05,0H17.17l-.09,0a1.41,1.41,0,0,0-.41.07l-.14.05a1.29,1.29,0,0,0-.45.31L.45,16.08a1.82,1.82,0,0,0-.31.45l-.05.14a1.41,1.41,0,0,0-.07.41s0,.06,0,.09V82.8a4.7,4.7,0,0,0,4.69,4.68H6.25v1.57a4.7,4.7,0,0,0,4.69,4.68H70.31A4.7,4.7,0,0,0,75,89.05V10.94a4.7,4.7,0,0,0-4.69-4.69ZM15.61,5.33v8.73a1.57,1.57,0,0,1-1.56,1.57H5.31ZM3.11,82.81V18.75H14.05a4.7,4.7,0,0,0,4.68-4.69V3.12H64.05a1.57,1.57,0,0,1,1.56,1.57V82.81a1.56,1.56,0,0,1-1.56,1.56H4.67A1.56,1.56,0,0,1,3.11,82.81Zm68.75,6.25a1.56,1.56,0,0,1-1.56,1.56H10.92a1.56,1.56,0,0,1-1.56-1.56V87.5H64.05a4.7,4.7,0,0,0,4.68-4.69V9.37H70.3a1.57,1.57,0,0,1,1.56,1.57Z"/><path class="cls-1" d="M31.23,21.88h25a3.14,3.14,0,0,0,3.13-3.13V12.5a3.13,3.13,0,0,0-3.13-3.12h-25a3.13,3.13,0,0,0-3.12,3.12v6.25A3.14,3.14,0,0,0,31.23,21.88Zm0-9.38h25v6.25h-25Z"/><path class="cls-1" d="M12.48,40.62h6.25a4.69,4.69,0,0,0,4.69-4.68V29.69A4.7,4.7,0,0,0,18.73,25H12.48A4.7,4.7,0,0,0,7.8,29.69v6.25A4.69,4.69,0,0,0,12.48,40.62ZM10.92,29.69a1.58,1.58,0,0,1,1.56-1.57h6.25a1.58,1.58,0,0,1,1.57,1.57v6.25a1.57,1.57,0,0,1-1.57,1.56H12.48a1.57,1.57,0,0,1-1.56-1.56Z"/><path class="cls-1" d="M13.72,35.48a1.5,1.5,0,0,0,1.11.46,1.6,1.6,0,0,0,1.11-.46l3.12-3.12a1.56,1.56,0,1,0-2.2-2.2l-2,2-.45-.45a1.56,1.56,0,1,0-2.2,2.2l1.56,1.56Z"/><path class="cls-1" d="M29.67,37.5H46.86a1.56,1.56,0,1,0,0-3.12H29.67a1.56,1.56,0,0,0,0,3.12Z"/><path class="cls-1" d="M29.67,31.25H59.36a1.57,1.57,0,0,0,0-3.13H29.67a1.57,1.57,0,0,0,0,3.13Z"/><path class="cls-1" d="M12.48,59.38h6.25a4.7,4.7,0,0,0,4.69-4.69V48.44a4.7,4.7,0,0,0-4.69-4.69H12.48A4.7,4.7,0,0,0,7.8,48.44v6.25A4.7,4.7,0,0,0,12.48,59.38ZM10.92,48.44a1.58,1.58,0,0,1,1.56-1.57h6.25a1.58,1.58,0,0,1,1.57,1.57v6.25a1.57,1.57,0,0,1-1.57,1.56H12.48a1.57,1.57,0,0,1-1.56-1.56Z"/><path class="cls-1" d="M13.72,54.23a1.5,1.5,0,0,0,1.11.46,1.6,1.6,0,0,0,1.11-.46l3.12-3.12a1.56,1.56,0,1,0-2.2-2.2l-2,2-.45-.45a1.56,1.56,0,1,0-2.2,2.2l1.56,1.56Z"/><path class="cls-1" d="M29.67,56.25H46.86a1.57,1.57,0,0,0,0-3.13H29.67a1.57,1.57,0,0,0,0,3.13Z"/><path class="cls-1" d="M29.67,50H59.36a1.56,1.56,0,1,0,0-3.12H29.67a1.56,1.56,0,0,0,0,3.12Z"/><path class="cls-1" d="M12.48,78.12h6.25a4.69,4.69,0,0,0,4.69-4.68V67.19a4.7,4.7,0,0,0-4.69-4.69H12.48A4.7,4.7,0,0,0,7.8,67.19v6.25A4.69,4.69,0,0,0,12.48,78.12ZM10.92,67.19a1.58,1.58,0,0,1,1.56-1.57h6.25a1.58,1.58,0,0,1,1.57,1.57v6.25A1.57,1.57,0,0,1,18.73,75H12.48a1.57,1.57,0,0,1-1.56-1.56Z"/><path class="cls-1" d="M13.72,73a1.5,1.5,0,0,0,1.11.46A1.6,1.6,0,0,0,15.94,73l3.12-3.12a1.56,1.56,0,1,0-2.2-2.2l-2,2-.45-.45a1.56,1.56,0,1,0-2.2,2.2L13.75,73Z"/><path class="cls-1" d="M29.67,75H46.86a1.56,1.56,0,0,0,0-3.12H29.67a1.56,1.56,0,0,0,0,3.12Z"/><path class="cls-1" d="M29.67,68.75H59.36a1.57,1.57,0,0,0,0-3.13H29.67a1.57,1.57,0,0,0,0,3.13Z"/></svg>