<svg id="Layer_1" data-name="Layer 1" xmlns="http://www.w3.org/2000/svg" viewBox="0 0 68.75 90.63"><defs><style>.cls-1{fill:#ee247c;}</style></defs><path class="cls-1" d="M68.75,6.25V3.12A3.13,3.13,0,0,0,65.62,0H3.12A3.12,3.12,0,0,0,0,3.12V6.25A6.25,6.25,0,0,0,6.25,12.5V78.13A6.25,6.25,0,0,0,0,84.38V87.5a3.13,3.13,0,0,0,3.12,3.13h62.5a3.13,3.13,0,0,0,3.13-3.13V84.38a6.25,6.25,0,0,0-6.25-6.25V12.5A6.25,6.25,0,0,0,68.75,6.25Zm-65.63,0V3.12h62.5V6.25A3.13,3.13,0,0,1,62.5,9.38H6.25A3.14,3.14,0,0,1,3.12,6.25ZM9.38,26.38a36.22,36.22,0,0,0,15,18.93,36.38,36.38,0,0,0-15,18.94V26.37ZM21.19,78.13a31.06,31.06,0,0,1,4.83-4,14.53,14.53,0,0,1,16.7,0,31.76,31.76,0,0,1,4.84,4Zm44.43,6.25V87.5H3.12V84.38a3.13,3.13,0,0,1,3.13-3.13H62.5A3.13,3.13,0,0,1,65.62,84.38ZM59.38,64.25a36.35,36.35,0,0,0-15-18.94,36.32,36.32,0,0,0,15-18.94ZM57.79,20a33.21,33.21,0,0,1-17.3,23.9,1.56,1.56,0,0,0,0,2.78A33.19,33.19,0,0,1,57.79,70.6l1.29,7.53H51.46c-1.09-1.89-3.36-4-6.94-6.56a17.55,17.55,0,0,0-8.59-3.14V62.51a1.56,1.56,0,0,0-3.12,0v5.92a17.55,17.55,0,0,0-8.59,3.14c-3.57,2.52-5.84,4.68-6.93,6.56H9.66L11,70.6a33.19,33.19,0,0,1,17.3-23.89,1.56,1.56,0,0,0,0-2.78A33.19,33.19,0,0,1,11,20L9.66,12.5H59.08ZM30.84,38.33a8,8,0,0,0,2,.67v7.88a1.57,1.57,0,0,0,3.13,0V39a8.19,8.19,0,0,0,2-.67A26.87,26.87,0,0,0,52,20.69a1.55,1.55,0,0,0-.28-1.33,1.56,1.56,0,0,0-1.23-.6H18.26a1.56,1.56,0,0,0-1.23.6,1.51,1.51,0,0,0-.28,1.33A26.87,26.87,0,0,0,30.84,38.33ZM48.41,21.88a23.73,23.73,0,0,1-11.9,13.65,4.77,4.77,0,0,1-1.84.47,1.45,1.45,0,0,0-.3,0,1.47,1.47,0,0,0-.29,0,4.77,4.77,0,0,1-1.85-.47A23.75,23.75,0,0,1,20.34,21.88ZM35.94,53.13v3.12a1.57,1.57,0,1,1-3.13,0V53.13a1.57,1.57,0,0,1,3.13,0Z"/></svg>