<svg id="Layer_1" data-name="Layer 1" xmlns="http://www.w3.org/2000/svg" viewBox="0 0 80 76.07"><defs><style>.cls-1{fill:#ee247c;}</style></defs><path class="cls-1" d="M79.56,32.8l-3.79-4,1.57-5.27A1.6,1.6,0,0,0,77,22a1.58,1.58,0,0,0-1.53-.45l-2.82.67A38,38,0,1,0,76.07,38c0-.65,0-1.29-.06-1.93l2.76-.66a1.6,1.6,0,0,0,.79-2.65Zm-6.74-2.44L75.33,33l-1.21.29a1.3,1.3,0,0,0-.34.08L64.7,35.54a.89.89,0,0,0-.28.07l-1.06.25-2.11-2.24a1.59,1.59,0,0,0-1.53-.46l-14,3.36a1.14,1.14,0,0,0-.25.06l-6.88,1.65a.5.5,0,0,1-.61-.38s.36-.61.36-.62l16.32-3.89.09,0,4.78-1.14a1.62,1.62,0,0,0,1.16-1.09l.87-2.94,12-2.86-1,3.51a1.58,1.58,0,0,0,.37,1.56Zm-38,8.21a3.71,3.71,0,0,0,3.62,2.86,4.14,4.14,0,0,0,.84-.09h0l4.65-1.11a6.28,6.28,0,1,1-2-7.13l-4.34,1a3.67,3.67,0,0,0-2.31,1.69,3.61,3.61,0,0,0-.43,2.75Zm10.71-6.34a9.52,9.52,0,0,0-5.9-3.53V26.52H36.43V28.7a9.51,9.51,0,0,0-7.74,7.75H26.5v3.19h2.19a9.49,9.49,0,0,0,7.74,7.74v2.19h3.19V47.38a9.52,9.52,0,0,0,7.79-8l6.41-1.53c0,.06,0,.12,0,.18A15.82,15.82,0,1,1,52,30.68Zm9.68-2.31A19,19,0,1,0,57,38c0-.32,0-.63,0-.95l2.57-.61,2.1,2.24a1.59,1.59,0,0,0,1.53.46l.13,0A25.27,25.27,0,1,1,59.9,25.26h0a1.58,1.58,0,0,0-1.16,1.09l-.88,2.93ZM72.87,38A34.82,34.82,0,1,1,69.45,23l-6.32,1.51a28.54,28.54,0,1,0,3.41,13.9l6.31-1.5c0,.38,0,.77,0,1.16Z"/></svg>