<svg id="Layer_1" data-name="Layer 1" xmlns="http://www.w3.org/2000/svg" viewBox="0 0 62.96 80.02"><defs><style>.cls-1{fill:#ee247c;}</style></defs><path class="cls-1" d="M18.2,53a21.72,21.72,0,0,0,12,3.55h.41a11.6,11.6,0,0,0,1.44-.09A22.9,22.9,0,0,0,40,54.43c6.29-2.92,10.43-7.64,11.93-13.68,1.72-6.89-.22-14.69-5.31-21.43a1,1,0,0,0-1-.39,1,1,0,0,0-.79.65l-2.55,7a1.7,1.7,0,0,1-.94,1A1.71,1.71,0,0,1,39,25.83c.89-9.56-2.84-18.64-10.5-25.57a1,1,0,0,0-1.67.66c-.62,7.24-3.8,14-9.46,20.16a25.78,25.78,0,0,0-6.84,15.49C10,43.76,12.57,49.29,18.2,53Zm13.52,1.5c-.46,0-.94,0-1.41.06l-.66,0a10.25,10.25,0,0,1-9.11-8.69,10.35,10.35,0,0,1,.68-5.38A5.05,5.05,0,0,0,25,43.94a1,1,0,0,0,1.14-1.26c-2.15-7.62,3-12.94,6-15.28a13.79,13.79,0,0,0,2.9,8.69c1.25,1.83,2.23,3.28,1.79,6.14a1,1,0,0,0,1.81.72l1.56-2.24a11.75,11.75,0,0,0,.23,1.9,11.7,11.7,0,0,1-.18,5.2,10.21,10.21,0,0,1-8.55,6.72ZM12.49,36.72a23.82,23.82,0,0,1,6.32-14.28c5.45-5.9,8.72-12.4,9.74-19.33,6.22,6.3,9.2,14.23,8.43,22.53a3.74,3.74,0,0,0,2.17,3.76,3.71,3.71,0,0,0,5-2.13L46.05,22c3.91,5.88,5.32,12.43,3.88,18.22-1.27,5.1-4.68,9.17-9.85,11.85a12.06,12.06,0,0,0,2.06-3.64,13.35,13.35,0,0,0,.25-6.29,10.73,10.73,0,0,1,.16-4.89,1,1,0,0,0-1.76-.93l-2,2.88A11.45,11.45,0,0,0,36.7,35a12.13,12.13,0,0,1-2.45-9.46,1,1,0,0,0-1.52-.95c-5.17,3.21-9.95,9.07-9,16.41a7.39,7.39,0,0,1-1.22-3.26,1,1,0,0,0-1.8-.42,12.15,12.15,0,0,0,1,15.45,18.25,18.25,0,0,1-2.44-1.36c-5-3.35-7.27-8.14-6.8-14.64Z"/><path class="cls-1" d="M60.29,69.44l-.1,0-.07,0-9.37-2.74L59,64.24a5.46,5.46,0,0,0,3.25-2.61A5.43,5.43,0,0,0,56,53.82L31.46,61,7,53.81a5.32,5.32,0,0,0-4.15.45A5.39,5.39,0,0,0,.22,57.49a5.46,5.46,0,0,0,3.69,6.75l8.23,2.42L2.67,69.44h0A3.63,3.63,0,0,0,.28,72a6.68,6.68,0,0,0,0,3.86C1.05,78.34,2.92,80,4.81,80a3,3,0,0,0,.89-.13,0,0,0,0,0,0,0l25.77-7.56,25.78,7.56h0a3.13,3.13,0,0,0,.86.12,3.83,3.83,0,0,0,2.46-1,6.59,6.59,0,0,0,2.06-3.25,6.73,6.73,0,0,0,0-3.85,3.74,3.74,0,0,0-2.4-2.5ZM4.48,62.32a3.44,3.44,0,0,1-2.34-4.27A3.39,3.39,0,0,1,3.8,56a3.34,3.34,0,0,1,2.61-.28L27.91,62,15.69,65.61ZM6.14,76.76a1.76,1.76,0,0,1-1,1.19h0c-.92.27-2.33-.79-2.9-2.73a4.68,4.68,0,0,1,0-2.67,1.73,1.73,0,0,1,1-1.19h0a1.26,1.26,0,0,1,.28,0c.9,0,2.1,1,2.61,2.77a4.68,4.68,0,0,1,0,2.67Zm2,.32a7,7,0,0,0-1.9-6.6l9.88-2.9h0L56.53,55.71A3.45,3.45,0,0,1,60.8,58a3.35,3.35,0,0,1-.28,2.61,3.41,3.41,0,0,1-2.05,1.65Zm46.71,0L35,71.27,47.2,67.69l9.52,2.78a7.06,7.06,0,0,0-1.91,6.61Zm5.88-1.85a4.67,4.67,0,0,1-1.41,2.27,1.76,1.76,0,0,1-1.5.46c-.92-.27-1.54-1.92-1-3.86.51-1.74,1.7-2.77,2.61-2.77a1.9,1.9,0,0,1,.25,0h.07a1.77,1.77,0,0,1,1,1.2,4.48,4.48,0,0,1,0,2.66Z"/></svg>