<svg id="Layer_1" data-name="Layer 1" xmlns="http://www.w3.org/2000/svg" viewBox="0 0 76.16 88.45"><defs><style>.cls-1{fill:#ee247c;fill-rule:evenodd;}</style></defs><path class="cls-1" d="M13.66,43.27,4,38.46a7.31,7.31,0,0,1-4-6.54V16.54a4.23,4.23,0,0,1,4.23-4.23h8.08V8.46H10.39A2.7,2.7,0,0,1,7.7,5.77V2.69A2.69,2.69,0,0,1,10.39,0H65.78a2.68,2.68,0,0,1,2.69,2.69V5.77a2.69,2.69,0,0,1-2.69,2.69H63.86v3.85h8.07a4.22,4.22,0,0,1,4.23,4.23V31.92a7.32,7.32,0,0,1-4,6.54L62.5,43.27A25.84,25.84,0,0,1,44.56,60l2.17,10.82h3.66A4.2,4.2,0,0,1,54.62,75v1.92h1.93a5.77,5.77,0,0,1,5.76,5.76V87.3a1.14,1.14,0,0,1-1.15,1.15H15a1.15,1.15,0,0,1-1.15-1.15V82.68a5.77,5.77,0,0,1,5.77-5.76h1.92V75a4.22,4.22,0,0,1,4.23-4.23h3.68L31.61,60A25.84,25.84,0,0,1,13.67,43.27ZM12.3,14.61H4.23A1.95,1.95,0,0,0,2.3,16.54V31.92a5,5,0,0,0,2.77,4.47l7.78,3.89a25.37,25.37,0,0,1-.53-4.56L6.79,33a1.15,1.15,0,0,1-.64-1V19.61A1.16,1.16,0,0,1,7.3,18.46h5Zm2.31-6.15V35a23.47,23.47,0,0,0,46.93,0V8.46ZM10.38,6.15H65.77a.38.38,0,0,0,.38-.38V2.69a.38.38,0,0,0-.38-.38H10.38a.38.38,0,0,0-.38.38V5.77A.38.38,0,0,0,10.38,6.15ZM63.3,40.28l7.78-3.89a5,5,0,0,0,2.76-4.47V16.54a1.93,1.93,0,0,0-1.92-1.93H63.84v3.85h5A1.16,1.16,0,0,1,70,19.61V31.92a1.15,1.15,0,0,1-.64,1l-5.53,2.77a25.37,25.37,0,0,1-.53,4.56Zm-21,20.15a26.3,26.3,0,0,1-8.43,0L31.78,70.77H44.35L42.28,60.43Zm-30-27.3V20.77H8.46V31.21ZM63.84,20.77V33.13l3.85-1.92V20.77ZM52.3,76.92V75a1.91,1.91,0,0,0-1.92-1.92H25.77A1.91,1.91,0,0,0,23.85,75v1.92H52.3Zm4.24,2.31H19.61a3.42,3.42,0,0,0-2.44,1,3.47,3.47,0,0,0-1,2.45v3.46H60V82.7a3.48,3.48,0,0,0-3.46-3.47ZM38.07,16.92A16.54,16.54,0,1,1,21.54,33.46,16.55,16.55,0,0,1,38.07,16.92Zm0,2.31A14.23,14.23,0,1,0,52.3,33.46,14.24,14.24,0,0,0,38.07,19.23Zm1,6.05,2.11,4.51,4.71.71a1.17,1.17,0,0,1,.92.78,1.15,1.15,0,0,1-.27,1.17L43.16,36,44,41a1.16,1.16,0,0,1-1.7,1.19l-4.2-2.32-4.19,2.32A1.16,1.16,0,0,1,32.18,41L33,36l-3.44-3.52a1.16,1.16,0,0,1,.66-2l4.7-.71L37,25.28a1.15,1.15,0,0,1,2.09,0Zm-1,3.21-1.33,2.83a1.16,1.16,0,0,1-.87.66l-3.1.47,2.28,2.34a1.13,1.13,0,0,1,.32,1L34.84,39l2.68-1.48a1.15,1.15,0,0,1,1.11,0L41.31,39l-.53-3.22a1.15,1.15,0,0,1,.31-1l2.28-2.34L40.28,32a1.16,1.16,0,0,1-.87-.66Z"/></svg>