<svg id="Layer_1" data-name="Layer 1" xmlns="http://www.w3.org/2000/svg" viewBox="0 0 103.8 119.33"><defs><style>.cls-1{fill:#ee247c;}</style></defs><path class="cls-1" d="M66,31a1.82,1.82,0,0,1-1-.31,1.84,1.84,0,0,1-.66-.83L63,26.44A14.14,14.14,0,0,0,55,18.51l-3.4-1.34a1.83,1.83,0,0,1-.83-.67,1.8,1.8,0,0,1-.31-1,1.82,1.82,0,0,1,.31-1,1.74,1.74,0,0,1,.83-.66L55,12.48A14,14,0,0,0,59.8,9.33,14,14,0,0,0,63,4.55l1.34-3.4A1.74,1.74,0,0,1,65,.32,1.82,1.82,0,0,1,66,0a1.8,1.8,0,0,1,1,.31,1.74,1.74,0,0,1,.66.83L69,4.55a14.14,14.14,0,0,0,3.14,4.78,14.06,14.06,0,0,0,4.79,3.15l3.4,1.34a1.83,1.83,0,0,1,1.14,1.67,1.8,1.8,0,0,1-.31,1,1.93,1.93,0,0,1-.83.67l-3.4,1.34A14.06,14.06,0,0,0,69,26.44l-1.35,3.4a1.84,1.84,0,0,1-.66.83A1.8,1.8,0,0,1,66,31ZM57.12,15.49A17.78,17.78,0,0,1,66,24.33a17.78,17.78,0,0,1,8.84-8.84A17.78,17.78,0,0,1,66,6.65,17.78,17.78,0,0,1,57.12,15.49Z"/><path class="cls-1" d="M14.08,115.92a1.8,1.8,0,0,1-1-.31,1.88,1.88,0,0,1-.67-.83l-1.2-3a12.35,12.35,0,0,0-2.78-4.23,12.4,12.4,0,0,0-4.23-2.78l-3.05-1.21a1.74,1.74,0,0,1-.83-.66,1.8,1.8,0,0,1,0-2,1.74,1.74,0,0,1,.83-.66L4.19,99a12.4,12.4,0,0,0,4.23-2.78A12.35,12.35,0,0,0,11.2,92l1.2-3a1.88,1.88,0,0,1,.67-.83,1.8,1.8,0,0,1,1-.31,1.82,1.82,0,0,1,1,.31,1.79,1.79,0,0,1,.66.83L17,92a12.5,12.5,0,0,0,2.78,4.23A12.34,12.34,0,0,0,24,99L27,100.17a1.8,1.8,0,0,1,0,3.34L24,104.72a12.34,12.34,0,0,0-4.24,2.78A12.5,12.5,0,0,0,17,111.73l-1.2,3a1.84,1.84,0,0,1-.66.83A1.82,1.82,0,0,1,14.08,115.92Zm-7.5-14.08a16.09,16.09,0,0,1,7.5,7.5,16.07,16.07,0,0,1,7.49-7.5,16.07,16.07,0,0,1-7.49-7.5A16.09,16.09,0,0,1,6.58,101.84Z"/><path class="cls-1" d="M85.12,96.34a6.32,6.32,0,0,1-1.62-.21L62.93,90.8a3.88,3.88,0,0,1-1.4-.68,3.81,3.81,0,0,1-1-1.16,4.14,4.14,0,0,1-.5-1.47,3.86,3.86,0,0,1,.11-1.55,53.2,53.2,0,0,0,1.18-23.23c-2-11-.1-20,5.59-26.85a21,21,0,0,1,14.75-7.49A19.52,19.52,0,0,1,96.34,33.6c5,4.69,7.6,11.8,7.45,20.55a44.1,44.1,0,0,1-3.48,16.22l-9.15,22a6.59,6.59,0,0,1-6,4Zm-21.29-9L84.4,92.65a2.94,2.94,0,0,0,2-.21,3,3,0,0,0,1.4-1.5L97,69a40.61,40.61,0,0,0,3.21-14.9c.13-7.82-2-13.83-6.31-17.86a16,16,0,0,0-12-4.27,17.42,17.42,0,0,0-12.21,6.2c-5,6-6.59,14-4.81,23.91a56.85,56.85,0,0,1-1.25,24.81.23.23,0,0,0,0,.14.28.28,0,0,0,0,.13.52.52,0,0,0,.1.11A.27.27,0,0,0,63.83,87.32Z"/><path class="cls-1" d="M71.2,119.33a15.87,15.87,0,0,1-4.49-.64A15.57,15.57,0,0,1,58,112.42a14.53,14.53,0,0,1-1.83-11.68A32.53,32.53,0,0,1,58,95.48a1.77,1.77,0,0,1,.88-.91,1.8,1.8,0,0,1,1.25-.11l25,6.91a1.81,1.81,0,0,1,1.29,2.06,43.68,43.68,0,0,1-1.7,6A13.88,13.88,0,0,1,71.2,119.33Zm-10.5-21a26.55,26.55,0,0,0-1,3.22c-1.74,7.27,2.93,12.18,8,13.67s11.24-.09,13.63-6.95c.55-1.6.94-2.94,1.18-3.91Z"/><path class="cls-1" d="M23.12,68a6.58,6.58,0,0,1-6-4l-9.15-22A43.94,43.94,0,0,1,4.45,25.83C4.3,17.07,6.88,10,11.9,5.28A19.52,19.52,0,0,1,26.61.05,21,21,0,0,1,41.36,7.53c5.69,6.81,7.57,15.85,5.59,26.86a53.15,53.15,0,0,0,1.18,23.22,3.87,3.87,0,0,1,.11,1.55,4,4,0,0,1-.5,1.47,4,4,0,0,1-2.43,1.85L24.74,67.81A6.32,6.32,0,0,1,23.12,68ZM25.33,3.6a16,16,0,0,0-11,4.3C10,11.94,7.91,18,8,25.77a40.65,40.65,0,0,0,3.21,14.9L20.4,62.62a2.95,2.95,0,0,0,3.44,1.71L44.41,59a.47.47,0,0,0,.12-.07.32.32,0,0,0,.1-.1.33.33,0,0,0,0-.13.32.32,0,0,0,0-.14,56.86,56.86,0,0,1-1.25-24.81c1.78-9.91.16-18-4.81-23.91a17.32,17.32,0,0,0-12.21-6.2C26,3.61,25.68,3.6,25.33,3.6Z"/><path class="cls-1" d="M37,91C31.6,91,26,88.2,23.49,81.15a45.08,45.08,0,0,1-1.69-6,1.81,1.81,0,0,1,1.29-2.06l25-6.91a1.74,1.74,0,0,1,1.25.11,1.77,1.77,0,0,1,.88.91A32.74,32.74,0,0,1,52,72.41,14.6,14.6,0,0,1,50.2,84.1a15.66,15.66,0,0,1-8.67,6.27A16.24,16.24,0,0,1,37,91Zm-11.33-15c.24,1,.63,2.32,1.18,3.91,2.39,6.86,8.57,8.43,13.63,6.94s9.75-6.4,8-13.66a26,26,0,0,0-1-3.22Z"/></svg>