<svg id="Layer_1" data-name="Layer 1" xmlns="http://www.w3.org/2000/svg" viewBox="0 0 97.5 94.7"><defs><style>.cls-1{fill:#ee247c;}</style></defs><path class="cls-1" d="M78.8,25.4a2.32,2.32,0,0,0-2.6.4h0V11.1a1.63,1.63,0,0,0-1.7-1.7H20.7V2.8l-.2-.2-.4-.4A12.47,12.47,0,0,0,12.9,0,13,13,0,0,0,0,12.8V82A12.72,12.72,0,0,0,12.7,94.7H74.3A1.63,1.63,0,0,0,76,93V80.9h1.6a2.26,2.26,0,0,0,2.3-2.3V27.7A2,2,0,0,0,78.8,25.4ZM30,73.8l.5.6a1.69,1.69,0,0,0,2.4,0A1.82,1.82,0,0,0,33,72l-.5-.5,2.6-2.4.5.6a1.69,1.69,0,0,0,2.4,0,1.63,1.63,0,0,0,0-2.4l-.5-.5,2.6-2.4.5.5a1.85,1.85,0,0,0,1.2.5,1.66,1.66,0,0,0,1.2-.5,1.63,1.63,0,0,0,0-2.4l-.5-.5,2.6-2.4.5.6a1.85,1.85,0,0,0,1.2.5,1.66,1.66,0,0,0,1.2-.5,1.85,1.85,0,0,0,.5-1.2,1.66,1.66,0,0,0-.5-1.2l-.5-.5,2.6-2.4.5.6a1.85,1.85,0,0,0,1.2.5,1.66,1.66,0,0,0,1.2-.5,1.69,1.69,0,0,0,0-2.4l-.5-.5,2.6-2.4.5.6c.5,0,1,.2,1.5.2a1.66,1.66,0,0,0,1.2-.5,1.85,1.85,0,0,0,.5-1.2,1.66,1.66,0,0,0-.5-1.2l-.5-.5,2.6-2.4.5.6a1.85,1.85,0,0,0,1.2.5,1.66,1.66,0,0,0,1.2-.5,1.82,1.82,0,0,0,.1-2.4l-.5-.6,2.6-2.5.5.6a1.85,1.85,0,0,0,1.2.5,1.66,1.66,0,0,0,1.2-.5,1.85,1.85,0,0,0,.5-1.2,1.66,1.66,0,0,0-.5-1.2l-.5-.5,2.6-2.4.6.6A1.7,1.7,0,0,0,74,35a1.66,1.66,0,0,0-.5-1.2l-.5-.5,3.6-3.4-.2,47.8H26Zm-17.2-1A9.55,9.55,0,0,1,18,74.3a1.17,1.17,0,0,0,.7.2h1.1l.2-.2c.1-.1.3-.2.3-.3a1.14,1.14,0,0,0,.3-.7V12.9H72.8V29L22.3,76.8a2.26,2.26,0,0,0-.6,2.7,2.3,2.3,0,0,0,2.2,1.4H72.7l-.1,10.4H12.8a9.25,9.25,0,1,1,0-18.5Zm4.4-2.7a12.32,12.32,0,0,0-4.4-.7,13,13,0,0,0-9.3,4V12.8A9.31,9.31,0,0,1,17.2,4.6Z"/><path class="cls-1" d="M66.7,54.7a3.7,3.7,0,0,0-4.2.6l-9.4,8.8a3.75,3.75,0,0,0-1,4.2,3.8,3.8,0,0,0,3.6,2.4h9.4a3.8,3.8,0,0,0,3.8-3.8V58.2A3.53,3.53,0,0,0,66.7,54.7ZM55.5,67a.37.37,0,0,1,.1-.3L65,58h.4c.2.1.2.2.2.3L65.5,67h0a.32.32,0,0,1-.3.3H55.8c-.1,0-.2,0-.2-.1l-.1-.2Z"/><path class="cls-1" d="M97.1,23.3a1.66,1.66,0,0,0-.5-1.2l-.1-.1v-.8a4,4,0,0,0-1.3-3A3.85,3.85,0,0,0,92.1,17H88.9a4,4,0,0,0-3,1.3,3.85,3.85,0,0,0-1.2,3.1v.7a1.71,1.71,0,0,0-.7,1.3V30l.2,38.3v5.3a1.53,1.53,0,0,0,.1.9l3.4,7.6.2.3a3.5,3.5,0,0,0,2.8,1.4,3.55,3.55,0,0,0,2.5-1l.2-.2h.1l3.7-7.9a1.94,1.94,0,0,0,.3-1.2ZM92.8,75.5l-1.4,2.9-.8,1.8-.7-1.8-1.3-2.9Zm.3-54.2v.4H88.3v-.4a.65.65,0,0,1,.2-.5h0a.91.91,0,0,1,.7-.3h3.2c.4,0,.5.1.6.2A3.54,3.54,0,0,1,93.1,21.3ZM87.7,69.5l1.4-.7,3,1.2a2.29,2.29,0,0,0,1.5-.1l.4-.2V72H87.8V69.5Zm2.1-4.3a2.5,2.5,0,0,0-1.4,0l-.6.3-.3-33.7h6.1l.3,33.8-1.3.8ZM87.5,28.3V25.1h6.1v3.2Z"/></svg>