<svg id="Layer_1" data-name="Layer 1" xmlns="http://www.w3.org/2000/svg" viewBox="0 0 100.01 98.99"><defs><style>.cls-1{fill:#ee247c;fill-rule:evenodd;}</style></defs><path class="cls-1" d="M94,99H29.07a6,6,0,0,1-6-6V60.49a1.7,1.7,0,0,1,1.7-1.69h14.7c-.29-1-.64-1.88-.93-2.64A11.17,11.17,0,0,1,37.44,52a8.18,8.18,0,0,1,16.35,0,12.31,12.31,0,0,1-1,4.16,19.12,19.12,0,0,0-.93,2.64h7.91V48a1.63,1.63,0,0,1,.64-1.29,1.58,1.58,0,0,1,1.41-.35A30.71,30.71,0,0,1,67.09,48a9.07,9.07,0,0,0,2.87.82,4.75,4.75,0,1,0,0-9.49,8.68,8.68,0,0,0-2.87.76,30.07,30.07,0,0,1-5.27,1.64,1.78,1.78,0,0,1-1.41-.35A1.75,1.75,0,0,1,59.77,40V24.35A2.4,2.4,0,0,1,62.17,22H93.86A6.15,6.15,0,0,1,100,28.16V93a6,6,0,0,1-6,6Zm-30.76-3.4H94A2.56,2.56,0,0,0,96.56,93V62.19H84.43c.29,1,.65,1.88.94,2.7a10.73,10.73,0,0,1,1,4.1,8.17,8.17,0,0,1-16.34,0,11.6,11.6,0,0,1,1-4.1,23.5,23.5,0,0,0,.94-2.7H63.22v10.9a1.64,1.64,0,0,1-.47,1.17.06.06,0,0,1-.06.06,1.64,1.64,0,0,1-1.17.47h-.41a39.22,39.22,0,0,1-5.21-1.58A7.74,7.74,0,0,0,53,72.39a4.75,4.75,0,0,0,0,9.49,9.11,9.11,0,0,0,2.88-.82,30,30,0,0,1,5.21-1.58c.12,0,.23-.06.35-.06h.12a1.43,1.43,0,0,1,1.05.47c.06,0,.12,0,.12.11a1.64,1.64,0,0,1,.47,1.12V95.59ZM26.43,62.19V93a2.63,2.63,0,0,0,2.64,2.63h30.7V83.34c-1,.29-1.82.65-2.64.94a12,12,0,0,1-4.1,1,8.18,8.18,0,1,1,0-16.35,11.05,11.05,0,0,1,4.1,1c.82.3,1.64.65,2.64.94V62.19H49.63a1.67,1.67,0,0,1-1.64-2,27.25,27.25,0,0,1,1.58-5.22A9.27,9.27,0,0,0,50.39,52a4.75,4.75,0,0,0-9.49,0,9.15,9.15,0,0,0,.76,2.93,29.87,29.87,0,0,1,1.64,5.22A2.06,2.06,0,0,1,43,61.6a1.87,1.87,0,0,1-1.34.59Zm36.79-3.4h11a1.55,1.55,0,0,1,1.28.65,1.5,1.5,0,0,1,.36,1.41,25.33,25.33,0,0,1-1.59,5.21A9.62,9.62,0,0,0,73.47,69,4.78,4.78,0,0,0,83,69a9.34,9.34,0,0,0-.82-2.93,30,30,0,0,1-1.64-5.21,1.91,1.91,0,0,1,.36-1.41,1.75,1.75,0,0,1,1.34-.65h14.3V28.16a2.71,2.71,0,0,0-2.7-2.76H63.22V37.82c1-.29,1.88-.64,2.64-.94A11.05,11.05,0,0,1,70,35.83a8.18,8.18,0,1,1,0,16.35,12,12,0,0,1-4.1-1,20.47,20.47,0,0,0-2.64-.94V58.8ZM19.29,54h-.06a1.6,1.6,0,0,1-1.18-.53,1.54,1.54,0,0,1-.23-.29L.89,25.52a6.07,6.07,0,0,1,2-8.32L30.59.27a1.72,1.72,0,0,1,2.35.52.83.83,0,0,1,.11.36.73.73,0,0,1,.24.23l7,11.48c.7-.82,1.29-1.52,1.82-2.23a11,11,0,0,1,2.93-3,8.18,8.18,0,0,1,8.55,13.94,12.34,12.34,0,0,1-4,1.23c-.82.17-1.76.35-2.76.58l5.39,8.79a1.71,1.71,0,0,1-.58,2.35L41.43,40.75a1.79,1.79,0,0,1-1.46.11,1.52,1.52,0,0,1-1-1,31.54,31.54,0,0,1-1.4-5.33,8.57,8.57,0,0,0-.82-2.87,4.76,4.76,0,0,0-6.51-1.59,4.71,4.71,0,0,0-1.58,6.57,10.67,10.67,0,0,0,2.17,2.05,25.93,25.93,0,0,1,4.1,3.63,1.68,1.68,0,0,1,.47,1.35,1.56,1.56,0,0,1-.82,1.23L20.17,53.76a.52.52,0,0,1-.24.11,1.22,1.22,0,0,1-.64.12ZM30.88,4.08,4.7,20.13a2.57,2.57,0,0,0-.88,3.57L19.87,50l11.07-6.8c-.76-.7-1.53-1.23-2.17-1.76a11.44,11.44,0,0,1-3.05-3,8.18,8.18,0,0,1,2.7-11.25,8.22,8.22,0,0,1,11.24,2.7A12.26,12.26,0,0,1,41,34a19.9,19.9,0,0,0,.59,2.7l6.74-4.11-5.57-9.19a1.63,1.63,0,0,1-.17-1.47,1.66,1.66,0,0,1,1.05-1.05,28.14,28.14,0,0,1,5.27-1.35,9.47,9.47,0,0,0,2.93-.82,4.74,4.74,0,0,0,1.53-6.56,4.69,4.69,0,0,0-6.51-1.53,8.35,8.35,0,0,0-2.05,2.17,33.27,33.27,0,0,1-3.63,4.1,1.8,1.8,0,0,1-1.41.47,1.66,1.66,0,0,1-1.23-.82L30.87,4.07Z"/></svg>