<svg id="Layer_1" data-name="Layer 1" xmlns="http://www.w3.org/2000/svg" viewBox="0 0 82.48 98.38"><defs><style>.cls-1{fill:#ee247c;}</style></defs><path class="cls-1" d="M82.47,40.06A40.33,40.33,0,0,0,66.25,7,37.55,37.55,0,0,0,44.1-.19,37.94,37.94,0,0,0,32,1.79C13.69,7.65,2.43,26.21,6.9,43.11a1.94,1.94,0,0,1,0,1.26l0,.05L.5,57.68a5.28,5.28,0,0,0,2.49,7,5.38,5.38,0,0,0,2.23.5H7.27v9A11.83,11.83,0,0,0,19.05,86h6.49a1.9,1.9,0,0,1,1.89,1.88v7.31a3.44,3.44,0,0,0,3.38,3.39H66.42a3.33,3.33,0,0,0,.94-.13,3.54,3.54,0,0,0,2-1.63,3.39,3.39,0,0,0,.28-2.57l-2.44-8.47A16.2,16.2,0,0,1,70.62,72.5,50.33,50.33,0,0,0,82.47,40.06ZM64.24,86.43l0,.08,2.57,9H30.51V87.86a5,5,0,0,0-5-4.94H19a8.75,8.75,0,0,1-8.71-8.71V63.61a1.53,1.53,0,0,0-1.54-1.54H5.22a2.17,2.17,0,0,1-2.14-2.18A2,2,0,0,1,3.29,59L9.61,45.83a4.9,4.9,0,0,0,.28-3.41C5.84,27,16.19,10.09,33,4.7A34.9,34.9,0,0,1,64.45,9.47a37.39,37.39,0,0,1,15,30.61A47.26,47.26,0,0,1,68.25,70.52h0A19.44,19.44,0,0,0,64.24,86.43Z"/><path class="cls-1" d="M82.47,40.06A40.33,40.33,0,0,0,66.25,7,37.55,37.55,0,0,0,44.1-.19,37.94,37.94,0,0,0,32,1.79C13.69,7.65,2.43,26.21,6.9,43.11a1.94,1.94,0,0,1,0,1.26l0,.05L.5,57.68a5.28,5.28,0,0,0,2.49,7,5.38,5.38,0,0,0,2.23.5H7.27v9A11.83,11.83,0,0,0,19.05,86h6.49a1.9,1.9,0,0,1,1.89,1.88v7.31a3.44,3.44,0,0,0,3.38,3.39H66.42a3.33,3.33,0,0,0,.94-.13,3.54,3.54,0,0,0,2-1.63,3.39,3.39,0,0,0,.28-2.57l-2.44-8.47A16.2,16.2,0,0,1,70.62,72.5,50.33,50.33,0,0,0,82.47,40.06ZM64.24,86.43l0,.08,2.57,9H30.51V87.86a5,5,0,0,0-5-4.94H19a8.75,8.75,0,0,1-8.71-8.71V63.61a1.53,1.53,0,0,0-1.54-1.54H5.22a2.17,2.17,0,0,1-2.14-2.18A2,2,0,0,1,3.29,59L9.61,45.83a4.9,4.9,0,0,0,.28-3.41C5.84,27,16.19,10.09,33,4.7A34.9,34.9,0,0,1,64.45,9.47a37.39,37.39,0,0,1,15,30.61A47.26,47.26,0,0,1,68.25,70.52h0A19.44,19.44,0,0,0,64.24,86.43Z"/><path class="cls-1" d="M67.47,38.66a7.47,7.47,0,0,0-6.35-6.33l-.87-.13V24.33a1.53,1.53,0,0,0-1.53-1.54H50.83l-.12-.88a7.54,7.54,0,0,0-7.42-6.44,7.46,7.46,0,0,0-7.45,6.44l-.12.88H27.83a1.54,1.54,0,0,0-1.54,1.54V34a1.53,1.53,0,0,0,1.53,1.53,1.66,1.66,0,0,0,.32,0,3.83,3.83,0,0,1,1-.13,4.44,4.44,0,1,1,0,8.88,4.55,4.55,0,0,1-1-.11,1.12,1.12,0,0,0-.32,0,1.6,1.6,0,0,0-1,.34,1.49,1.49,0,0,0-.57,1.19v9.63a1.53,1.53,0,0,0,1.54,1.53H58.72a1.52,1.52,0,0,0,1.53-1.53V47.35l.87-.14a7.54,7.54,0,0,0,6.35-8.55Zm-4,4.09a4.4,4.4,0,0,1-3.27,1.46H60a4.39,4.39,0,0,1-1-.11,1.24,1.24,0,0,0-.33,0,1.54,1.54,0,0,0-1.51,1.19,1.37,1.37,0,0,0,0,.34v8.09H29.36V47.31l.89-.12a7.51,7.51,0,0,0,0-14.87l-.89-.12V25.86h8.09a1.54,1.54,0,0,0,1.22-.64A1.45,1.45,0,0,0,39,24a4.4,4.4,0,0,1-.13-1.06,4.46,4.46,0,0,1,4.44-4.21h.25A4.45,4.45,0,0,1,47.74,23a4.74,4.74,0,0,1-.12.94,1.58,1.58,0,0,0,1.58,1.9h8.08V34a1.54,1.54,0,0,0,1.53,1.53l.29,0a3.93,3.93,0,0,1,1-.13,4.46,4.46,0,0,1,2.53.79,4.42,4.42,0,0,1,.78,6.62Z"/><path class="cls-1" d="M67.47,38.66a7.47,7.47,0,0,0-6.35-6.33l-.87-.13V24.33a1.53,1.53,0,0,0-1.53-1.54H50.83l-.12-.88a7.54,7.54,0,0,0-7.42-6.44,7.46,7.46,0,0,0-7.45,6.44l-.12.88H27.83a1.54,1.54,0,0,0-1.54,1.54V34a1.53,1.53,0,0,0,1.53,1.53,1.66,1.66,0,0,0,.32,0,3.83,3.83,0,0,1,1-.13,4.44,4.44,0,1,1,0,8.88,4.55,4.55,0,0,1-1-.11,1.12,1.12,0,0,0-.32,0,1.6,1.6,0,0,0-1,.34,1.49,1.49,0,0,0-.57,1.19v9.63a1.53,1.53,0,0,0,1.54,1.53H58.72a1.52,1.52,0,0,0,1.53-1.53V47.35l.87-.14a7.54,7.54,0,0,0,6.35-8.55Zm-4,4.09a4.4,4.4,0,0,1-3.27,1.46H60a4.39,4.39,0,0,1-1-.11,1.24,1.24,0,0,0-.33,0,1.54,1.54,0,0,0-1.51,1.19,1.37,1.37,0,0,0,0,.34v8.09H29.36V47.31l.89-.12a7.51,7.51,0,0,0,0-14.87l-.89-.12V25.86h8.09a1.54,1.54,0,0,0,1.22-.64A1.45,1.45,0,0,0,39,24a4.4,4.4,0,0,1-.13-1.06,4.46,4.46,0,0,1,4.44-4.21h.25A4.45,4.45,0,0,1,47.74,23a4.74,4.74,0,0,1-.12.94,1.58,1.58,0,0,0,1.58,1.9h8.08V34a1.54,1.54,0,0,0,1.53,1.53l.29,0a3.93,3.93,0,0,1,1-.13,4.46,4.46,0,0,1,2.53.79,4.42,4.42,0,0,1,.78,6.62Z"/></svg>