<svg id="Layer_1" data-name="Layer 1" xmlns="http://www.w3.org/2000/svg" xmlns:xlink="http://www.w3.org/1999/xlink" viewBox="0 0 235.28 194.55"><defs><style>.cls-1{fill:url(#linear-gradient);}</style><linearGradient id="linear-gradient" y1="97.28" x2="235.28" y2="97.28" gradientUnits="userSpaceOnUse"><stop offset="0" stop-color="#ee247c"/><stop offset="1" stop-color="#fe77aa"/></linearGradient></defs><path class="cls-1" d="M185.37,13.59a4.52,4.52,0,0,0-.29-1.62l8.36,8.37a3.77,3.77,0,0,1,1.1,2.66V37a3.77,3.77,0,0,0,3.77,3.77h14a3.77,3.77,0,0,1,2.67,1.1l8.37,8.37a4.34,4.34,0,0,0-1.63-.3h-25a11.31,11.31,0,0,1-11.32-11.31ZM38.59,49.92A11.31,11.31,0,0,0,49.91,38.61v-25a4.13,4.13,0,0,1,.3-1.62l-8.36,8.37A3.73,3.73,0,0,0,40.75,23V37A3.77,3.77,0,0,1,37,40.75H23a3.81,3.81,0,0,0-2.67,1.1L12,50.22a4.28,4.28,0,0,1,1.62-.3Zm117,65.58a13.39,13.39,0,0,0,11.76,6.73H224a11.32,11.32,0,0,0,11.31-11.32V63.74a3.77,3.77,0,0,0-1.1-2.66l-8.36-8.36a4.23,4.23,0,0,1,.29,1.61v54.32a4.44,4.44,0,0,1-4.41,4.42H167.38a4.29,4.29,0,0,1-3.12-1.3,4.22,4.22,0,0,1-1.28-3.12v-25a11.33,11.33,0,0,0-11.32-11.31h-25a4.42,4.42,0,0,1-4.4-4.42V13.59a4.25,4.25,0,0,1,1.29-3.11,4.33,4.33,0,0,1,3.11-1.31H181a4.58,4.58,0,0,1,1.63.3L174.22,1.1A3.84,3.84,0,0,0,171.55,0h-46.1a4.34,4.34,0,0,0-3.76,2.17l-1.4,2.42-.77,1.33a2.18,2.18,0,0,1-3.76,0L115,4.59,113.6,2.17A4.35,4.35,0,0,0,109.84,0H63.73a3.78,3.78,0,0,0-2.66,1.1L52.7,9.47a4.54,4.54,0,0,1,1.63-.3h54.31a4.46,4.46,0,0,1,4.42,4.42V67.91a4.44,4.44,0,0,1-4.42,4.42h-25A11.31,11.31,0,0,0,72.32,83.64v25a4.42,4.42,0,0,1-4.41,4.42H13.58a4.21,4.21,0,0,1-3.1-1.3,4.26,4.26,0,0,1-1.32-3.12V54.33a4.23,4.23,0,0,1,.3-1.61L1.1,61.08A3.77,3.77,0,0,0,0,63.74v47.17a11.32,11.32,0,0,0,11.32,11.32H67.91a13.42,13.42,0,0,0,11.76-6.73,13.47,13.47,0,0,0,1.82-6.85V85.27a3.77,3.77,0,0,1,3.77-3.77h23.38a4.46,4.46,0,0,1,4.42,4.41v54.33a4.2,4.2,0,0,1-1.3,3.11,4.31,4.31,0,0,1-3.12,1.32h-25A11.31,11.31,0,0,0,72.32,156v25a4.44,4.44,0,0,1-4.41,4.42H13.58a4.22,4.22,0,0,1-3.1-1.31A4.22,4.22,0,0,1,9.16,181V126.66a4.36,4.36,0,0,1,.3-1.62L1.1,133.4A3.76,3.76,0,0,0,0,136.07v47.16a11.32,11.32,0,0,0,11.32,11.32H67.91A13.49,13.49,0,0,0,81.49,181V157.59a3.77,3.77,0,0,1,3.77-3.78H150a3.79,3.79,0,0,1,3.78,3.78V181a13.57,13.57,0,0,0,6.73,11.78,13.42,13.42,0,0,0,6.85,1.79H224a11.31,11.31,0,0,0,11.31-11.31V136.07a3.76,3.76,0,0,0-1.1-2.67L225.82,125a4.35,4.35,0,0,1,.29,1.62V181a4.16,4.16,0,0,1-1.3,3.11,4.24,4.24,0,0,1-3.11,1.31H167.38a4.39,4.39,0,0,1-3.3-1.49A4.32,4.32,0,0,1,163,181V156a11.32,11.32,0,0,0-11.32-11.31h-25a4.43,4.43,0,0,1-4.4-4.43V85.91a4.23,4.23,0,0,1,1.29-3.1,4.29,4.29,0,0,1,3.11-1.31H150a3.77,3.77,0,0,1,3.77,3.77v23.38A13.28,13.28,0,0,0,155.62,115.5Z"/></svg>