<svg id="Layer_1" data-name="Layer 1" xmlns="http://www.w3.org/2000/svg" viewBox="0 0 64.67 81.33"><defs><style>.cls-1{fill:#f0f0f0;}</style></defs><path class="cls-1" d="M59.42,8.33H56.33V5.25A5.25,5.25,0,0,0,51.08,0H11.5A6,6,0,0,0,7.18,1.79L1.79,7.18A6.12,6.12,0,0,0,0,11.5V67.75A5.26,5.26,0,0,0,5.25,73H8.33v3.08a5.26,5.26,0,0,0,5.25,5.25H55.25a9.43,9.43,0,0,0,9.42-9.41V13.58A5.26,5.26,0,0,0,59.42,8.33ZM5.25,70.83a3,3,0,0,1-3.08-3.08V11.5A4,4,0,0,1,3.32,8.71L8.71,3.32A3.93,3.93,0,0,1,11.5,2.17H51.08a3.05,3.05,0,0,1,3.09,3.08v62.5a3.05,3.05,0,0,1-3.09,3.08ZM62.5,71.92a7.26,7.26,0,0,1-7.25,7.25H13.58a3.06,3.06,0,0,1-3.08-3.09V73H51.08a5.26,5.26,0,0,0,5.25-5.25V10.5h3.09a3,3,0,0,1,3.08,3.08Z"/><path class="cls-1" d="M59.42,8.33H56.33V5.25A5.25,5.25,0,0,0,51.08,0H11.5A6,6,0,0,0,7.18,1.79L1.79,7.18A6.12,6.12,0,0,0,0,11.5V67.75A5.26,5.26,0,0,0,5.25,73H8.33v3.08a5.26,5.26,0,0,0,5.25,5.25H55.25a9.43,9.43,0,0,0,9.42-9.41V13.58A5.26,5.26,0,0,0,59.42,8.33ZM5.25,70.83a3,3,0,0,1-3.08-3.08V11.5A4,4,0,0,1,3.32,8.71L8.71,3.32A3.93,3.93,0,0,1,11.5,2.17H51.08a3.05,3.05,0,0,1,3.09,3.08v62.5a3.05,3.05,0,0,1-3.09,3.08ZM62.5,71.92a7.26,7.26,0,0,1-7.25,7.25H13.58a3.06,3.06,0,0,1-3.08-3.09V73H51.08a5.26,5.26,0,0,0,5.25-5.25V10.5h3.09a3,3,0,0,1,3.08,3.08Z"/><path class="cls-1" d="M48,55.25a1,1,0,0,1-.32.76,1.07,1.07,0,0,1-.76.32H9.42A1.06,1.06,0,0,1,8.65,56a1.07,1.07,0,0,1,.77-1.84h37.5a1.07,1.07,0,0,1,.76.31A1.12,1.12,0,0,1,48,55.25Z"/><path class="cls-1" d="M48,55.25a1,1,0,0,1-.32.76,1.07,1.07,0,0,1-.76.32H9.42A1.06,1.06,0,0,1,8.65,56a1.07,1.07,0,0,1,.77-1.84h37.5a1.07,1.07,0,0,1,.76.31A1.12,1.12,0,0,1,48,55.25Z"/><path class="cls-1" d="M48,42.75a1,1,0,0,1-.32.76,1.07,1.07,0,0,1-.76.32H9.42a1.06,1.06,0,0,1-.77-.32,1.07,1.07,0,0,1,.77-1.84h37.5a1.07,1.07,0,0,1,.76.31A1.12,1.12,0,0,1,48,42.75Z"/><path class="cls-1" d="M48,42.75a1,1,0,0,1-.32.76,1.07,1.07,0,0,1-.76.32H9.42a1.06,1.06,0,0,1-.77-.32,1.07,1.07,0,0,1,.77-1.84h37.5a1.07,1.07,0,0,1,.76.31A1.12,1.12,0,0,1,48,42.75Z"/><path class="cls-1" d="M48,30.25a1,1,0,0,1-.32.76,1.07,1.07,0,0,1-.76.32H9.42A1.06,1.06,0,0,1,8.65,31a1.07,1.07,0,0,1,.77-1.84h37.5a1.07,1.07,0,0,1,.76.31A1.12,1.12,0,0,1,48,30.25Z"/><path class="cls-1" d="M48,30.25a1,1,0,0,1-.32.76,1.07,1.07,0,0,1-.76.32H9.42A1.06,1.06,0,0,1,8.65,31a1.07,1.07,0,0,1,.77-1.84h37.5a1.07,1.07,0,0,1,.76.31A1.12,1.12,0,0,1,48,30.25Z"/><path class="cls-1" d="M39.67,13.58a1.09,1.09,0,0,1-1.09,1.09H17.75a1.07,1.07,0,0,1-.76-.32,1.06,1.06,0,0,1-.32-.77,1.08,1.08,0,0,1,1.08-1.08H38.58a1.1,1.1,0,0,1,.77.32A1.07,1.07,0,0,1,39.67,13.58Z"/><path class="cls-1" d="M39.67,13.58a1.09,1.09,0,0,1-1.09,1.09H17.75a1.07,1.07,0,0,1-.76-.32,1.06,1.06,0,0,1-.32-.77,1.08,1.08,0,0,1,1.08-1.08H38.58a1.1,1.1,0,0,1,.77.32A1.07,1.07,0,0,1,39.67,13.58Z"/></svg>