<svg id="Layer_1" data-name="Layer 1" xmlns="http://www.w3.org/2000/svg" viewBox="0 0 200 200"><defs><style>.cls-1{fill:#f0f0f0;}.cls-2{fill:gray;}</style></defs><path class="cls-1" d="M200,100a99.85,99.85,0,1,1,0-.3Z"/><path class="cls-2" d="M135.6,56a1.88,1.88,0,0,0-.2-.8l4.4,4.4a2,2,0,0,1,.6,1.4v7.3a2,2,0,0,0,2,2h7.3a2,2,0,0,1,1.4.6l4.4,4.4a2.39,2.39,0,0,0-.9-.2H141.5a5.91,5.91,0,0,1-5.9-5.9ZM58.5,75.05a5.91,5.91,0,0,0,5.9-5.9V56a1.88,1.88,0,0,1,.2-.8l-4.4,4.4a2,2,0,0,0-.6,1.4v7.3a2,2,0,0,1-2,2H50.3a2,2,0,0,0-1.4.6l-4.4,4.4a2.39,2.39,0,0,1,.9-.2Zm61.5,34.5a6.51,6.51,0,0,0,2.6,2.6,7.4,7.4,0,0,0,3.6.9h29.7a5.91,5.91,0,0,0,5.9-5.9V82.35a2,2,0,0,0-.6-1.4l-4.4-4.4a2.35,2.35,0,0,1,.2.8V106a2,2,0,0,1-.7,1.6,2.13,2.13,0,0,1-1.6.7H126.2a2,2,0,0,1-1.6-.7,2.13,2.13,0,0,1-.7-1.6V92.75a5.91,5.91,0,0,0-5.9-5.9H104.9a2,2,0,0,1-1.6-.7,2.13,2.13,0,0,1-.7-1.6V56a2,2,0,0,1,.7-1.6,2.13,2.13,0,0,1,1.6-.7h28.5a2.92,2.92,0,0,1,.9.2l-4.4-4.4a2,2,0,0,0-1.4-.6H104.3a2.31,2.31,0,0,0-2,1.1l-.7,1.3-.6.7a1.13,1.13,0,0,1-2,0l-.4-.7L97.9,50a2.31,2.31,0,0,0-2-1.1H71.7a2,2,0,0,0-1.4.6l-4.4,4.4a2.39,2.39,0,0,1,.9-.2H95.3a2,2,0,0,1,1.6.7,2.13,2.13,0,0,1,.7,1.6v28.5a2,2,0,0,1-.7,1.6,2.13,2.13,0,0,1-1.6.7H82.1a5.91,5.91,0,0,0-5.9,5.9V106a2,2,0,0,1-.7,1.6,2.13,2.13,0,0,1-1.6.7H45.3a2,2,0,0,1-1.6-.7A2.13,2.13,0,0,1,43,106V77.35a1.88,1.88,0,0,1,.2-.8L38.8,81a2,2,0,0,0-.6,1.4v24.8a5.91,5.91,0,0,0,5.9,5.9H73.8a7.4,7.4,0,0,0,3.6-.9,6.51,6.51,0,0,0,2.6-2.6,7.49,7.49,0,0,0,1-3.6V93.65a2,2,0,0,1,2-2H95.3a2,2,0,0,1,1.6.7,2.57,2.57,0,0,1,.7,1.6v28.5a2,2,0,0,1-.7,1.6,2.13,2.13,0,0,1-1.6.7H82.1a5.91,5.91,0,0,0-5.9,5.9V144a2,2,0,0,1-.7,1.6,2.13,2.13,0,0,1-1.6.7H45.3a2,2,0,0,1-1.6-.7A2.13,2.13,0,0,1,43,144v-28.5a1.88,1.88,0,0,1,.2-.8l-4.4,4.4a2,2,0,0,0-.6,1.4v24.8a5.91,5.91,0,0,0,5.9,5.9H73.8a7.4,7.4,0,0,0,3.6-.9,6.51,6.51,0,0,0,2.6-2.6,7.49,7.49,0,0,0,1-3.6v-12.3a2,2,0,0,1,2-2h34a2,2,0,0,1,2,2V144a7.29,7.29,0,0,0,3.6,6.2,7.4,7.4,0,0,0,3.6.9h29.7a5.91,5.91,0,0,0,5.9-5.9v-24.8a2,2,0,0,0-.6-1.4l-4.4-4.4a2.35,2.35,0,0,1,.2.8V144a2,2,0,0,1-.7,1.6,2.13,2.13,0,0,1-1.6.7H126.2a2.14,2.14,0,0,1-1.7-.8,2.2,2.2,0,0,1-.6-1.5v-13.1A5.91,5.91,0,0,0,118,125H104.9a2.14,2.14,0,0,1-1.7-.8,2.2,2.2,0,0,1-.6-1.5V94a2,2,0,0,1,.7-1.6,2.13,2.13,0,0,1,1.6-.7H117a2,2,0,0,1,2,2V106A6.53,6.53,0,0,0,120,109.55Z"/></svg>