<?xml version="1.0" encoding="utf-8"?>
<!-- Generator: Adobe Illustrator 26.0.1, SVG Export Plug-In . SVG Version: 6.00 Build 0)  -->
<svg version="1.1" id="Layer_1" xmlns="http://www.w3.org/2000/svg" xmlns:xlink="http://www.w3.org/1999/xlink" x="0px" y="0px"
	 viewBox="0 0 200 200" style="enable-background:new 0 0 200 200;" xml:space="preserve">
<style type="text/css">
	.st0{fill:#0F0F0F;}
	.st1{fill:#808080;}
</style>
<g>
	<path class="st0" d="M200,100c0,55.2-44.8,100-100,100S0,155.2,0,100S44.8,0,100,0c55.1-0.1,99.9,44.5,100,99.7
		C200,99.8,200,99.9,200,100z"/>
	<path class="st1" d="M135.6,56c0-0.3-0.1-0.6-0.2-0.8l4.4,4.4c0.4,0.4,0.6,0.9,0.6,1.4v7.3c0,1.1,0.9,2,2,2h7.3
		c0.5,0,1,0.2,1.4,0.6l4.4,4.4c-0.3-0.1-0.5-0.2-0.9-0.2h-13.1c-3.3,0-5.9-2.7-5.9-5.9V56z M58.5,75.1c3.3,0,5.9-2.7,5.9-5.9V56
		c0-0.3,0.1-0.6,0.2-0.8l-4.4,4.4c-0.4,0.4-0.6,0.9-0.6,1.4v7.3c0,1.1-0.9,2-2,2h-7.3c-0.5,0-1,0.2-1.4,0.6l-4.4,4.4
		c0.3-0.1,0.5-0.2,0.9-0.2H58.5z M120,109.6c0.6,1.1,1.5,2,2.6,2.6c1.1,0.6,2.3,0.9,3.6,0.9h29.7c3.3,0,5.9-2.7,5.9-5.9V82.4
		c0-0.5-0.2-1-0.6-1.4l-4.4-4.4c0.1,0.3,0.2,0.5,0.2,0.8V106c0,0.6-0.2,1.2-0.7,1.6c-0.5,0.5-1,0.7-1.6,0.7h-28.5
		c-0.6,0-1.2-0.2-1.6-0.7c-0.5-0.5-0.7-1-0.7-1.6V92.8c0-3.3-2.7-5.9-5.9-5.9h-13.1c-0.6,0-1.2-0.2-1.6-0.7c-0.5-0.5-0.7-1-0.7-1.6
		V56c0-0.6,0.2-1.2,0.7-1.6c0.5-0.5,1-0.7,1.6-0.7h28.5c0.3,0,0.6,0.1,0.9,0.2l-4.4-4.4c-0.4-0.4-0.9-0.6-1.4-0.6h-24.2
		c-0.8,0-1.6,0.4-2,1.1l-0.7,1.3L101,52c-0.4,0.8-1.5,0.8-2,0l-0.4-0.7L97.9,50c-0.4-0.7-1.2-1.1-2-1.1H71.7c-0.5,0-1,0.2-1.4,0.6
		l-4.4,4.4c0.3-0.1,0.5-0.2,0.9-0.2h28.5c0.6,0,1.2,0.2,1.6,0.7c0.5,0.5,0.7,1,0.7,1.6v28.5c0,0.6-0.2,1.2-0.7,1.6
		c-0.5,0.5-1,0.7-1.6,0.7H82.1c-3.3,0-5.9,2.7-5.9,5.9V106c0,0.6-0.2,1.2-0.7,1.6c-0.5,0.5-1,0.7-1.6,0.7H45.3
		c-0.6,0-1.2-0.2-1.6-0.7c-0.5-0.5-0.7-1-0.7-1.6V77.4c0-0.3,0.1-0.6,0.2-0.8L38.8,81c-0.4,0.4-0.6,0.9-0.6,1.4v24.8
		c0,3.3,2.7,5.9,5.9,5.9h29.7c1.3,0,2.5-0.3,3.6-0.9c1.1-0.6,2-1.5,2.6-2.6c0.6-1.1,1-2.3,1-3.6V93.7c0-1.1,0.9-2,2-2h12.3
		c0.6,0,1.2,0.2,1.6,0.7s0.7,1,0.7,1.6v28.5c0,0.6-0.2,1.2-0.7,1.6c-0.5,0.5-1,0.7-1.6,0.7H82.1c-3.3,0-5.9,2.7-5.9,5.9V144
		c0,0.6-0.2,1.2-0.7,1.6c-0.5,0.5-1,0.7-1.6,0.7H45.3c-0.6,0-1.2-0.2-1.6-0.7c-0.5-0.5-0.7-1-0.7-1.6v-28.5c0-0.3,0.1-0.6,0.2-0.8
		l-4.4,4.4c-0.4,0.4-0.6,0.9-0.6,1.4v24.8c0,3.3,2.7,5.9,5.9,5.9h29.7c1.3,0,2.5-0.3,3.6-0.9c1.1-0.6,2-1.5,2.6-2.6
		c0.6-1.1,1-2.3,1-3.6v-12.3c0-1.1,0.9-2,2-2l10.7,0h12.6l10.7,0c1.1,0,2,0.9,2,2V144c0,1.3,0.3,2.5,1,3.6c0.6,1.1,1.5,2,2.6,2.6
		c1.1,0.6,2.3,0.9,3.6,0.9h29.7c3.3,0,5.9-2.7,5.9-5.9v-24.8c0-0.5-0.2-1-0.6-1.4l-4.4-4.4c0.1,0.3,0.2,0.5,0.2,0.8V144
		c0,0.6-0.2,1.2-0.7,1.6c-0.5,0.5-1,0.7-1.6,0.7h-28.5c-0.7,0-1.3-0.3-1.7-0.8c-0.4-0.4-0.6-1-0.6-1.5v-13.1c0-3.3-2.7-5.9-5.9-5.9
		h-13.1c-0.7,0-1.3-0.3-1.7-0.8c-0.4-0.4-0.6-1-0.6-1.5V94c0-0.6,0.2-1.2,0.7-1.6c0.5-0.5,1-0.7,1.6-0.7H117c1.1,0,2,0.9,2,2V106
		C119,107.3,119.3,108.5,120,109.6z"/>
</g>
</svg>
