<svg id="Layer_1" data-name="Layer 1" xmlns="http://www.w3.org/2000/svg" viewBox="0 0 84.37 76.5"><defs><style>.cls-1{fill:#ee247c;fill-rule:evenodd;}</style></defs><path class="cls-1" d="M52.56,0a2.5,2.5,0,0,0-2.5,2.5v8.75H40.84a2.5,2.5,0,0,0-2.5,2.5v2.5H29.12a2.51,2.51,0,0,0-2.5,2.5V38.48H22.71a6.44,6.44,0,0,0-4.21,1.57l-7.3,6.3a3.87,3.87,0,0,0-5.37.1l-4.7,4.68a3.84,3.84,0,0,0,0,5.43l0,0,19.4,18.8A3.86,3.86,0,0,0,26,75.32l.06-.06,4.26-4.59a3.84,3.84,0,0,0,.07-5.13l.75-.59a3.84,3.84,0,0,1,2.32-.85l26.79-.55a6.45,6.45,0,0,0,4.83-2.33L81,42a15.43,15.43,0,0,0,3.09-5.66,6,6,0,0,0-1.54-6.16c-.16-.14-.33-.29-.51-.42a7.11,7.11,0,0,0-3.72-1.28c-3.24-.27-6,1.63-8,3.51l-5.59,5.24V2.5A2.5,2.5,0,0,0,62.28,0Zm12,41h.26v-.25l7.35-6.89c1.89-1.77,3.92-3,6-2.82a4.6,4.6,0,0,1,2.38.77,3.88,3.88,0,0,1,.31.26,3.44,3.44,0,0,1,.79,3.63,12.84,12.84,0,0,1-2.57,4.66L63.14,59.58a3.86,3.86,0,0,1-2.9,1.4l-26.79.56a6.44,6.44,0,0,0-3.88,1.4l-1,.76L13,48.17,20.18,42a3.85,3.85,0,0,1,2.53-.94H53.55a9.24,9.24,0,0,1,3,.87,3.86,3.86,0,0,1,2.1,2.1,2.89,2.89,0,0,1,.14.88,4.87,4.87,0,0,1-1.94,3.89,6.62,6.62,0,0,1-1.62,1,3.16,3.16,0,0,1-1,.27H38.17a1.29,1.29,0,1,0-.23,2.57H54.26a5.63,5.63,0,0,0,1.94-.47,9.34,9.34,0,0,0,2.25-1.35,7.44,7.44,0,0,0,2.89-5.88,4.91,4.91,0,0,0-.07-.86Zm-2.74-1V3H53.06V38.48h.69a11.59,11.59,0,0,1,3.94,1.14,7.53,7.53,0,0,1,2.48,1.93ZM50.06,38.48V14.25H41.34V38.48ZM38.34,19.25V38.48H29.62V19.25ZM27.6,66.33l.83.82a1.28,1.28,0,0,1,0,1.78l-4.25,4.59a1.28,1.28,0,0,1-1.81,0l0,0L3,54.77A1.28,1.28,0,0,1,3,53H3l4.7-4.68a1.31,1.31,0,0,1,1.8,0l.78.77L27.52,66.24Z"/></svg>