<svg id="Layer_1" data-name="Layer 1" xmlns="http://www.w3.org/2000/svg" viewBox="0 0 110 85.44"><defs><style>.cls-1{fill:#f0f0f0;}</style></defs><path class="cls-1" d="M1.5,85.44h107a1.5,1.5,0,0,0,1.5-1.5V10.81a1.5,1.5,0,0,0-1.5-1.5h-8V1.5A1.5,1.5,0,0,0,99,0C74.87,0,58.57,7.35,55,9.12,51.43,7.35,35.13,0,11,0a1.5,1.5,0,0,0-1.5,1.5V9.31h-8A1.5,1.5,0,0,0,0,10.81V83.94A1.5,1.5,0,0,0,1.5,85.44ZM3,12.31H9.52V74.63a1.5,1.5,0,0,0,1.5,1.5,107,107,0,0,1,36.65,6.31H3ZM12.52,3c16.2.22,31.45,4.14,41,8.72V81.54c-5.37-2.43-20.13-8.14-41-8.4Zm85,0V73.14c-20.85.26-35.61,6-41,8.4V11.73C66,7.16,81.22,3.22,97.47,3ZM107,82.44H62.32A107.24,107.24,0,0,1,99,76.13a1.5,1.5,0,0,0,1.5-1.5V12.31H107Z"/><path class="cls-1" d="M63.83,21.28c.92,0,10.21-3.92,25.8-5.19a1.5,1.5,0,0,0-.24-3,111.33,111.33,0,0,0-26,5.26,1.5,1.5,0,0,0,.48,2.92Z"/><path class="cls-1" d="M63.83,32.4c.92,0,10.21-3.92,25.8-5.19a1.5,1.5,0,0,0-.24-3,111.33,111.33,0,0,0-26,5.26,1.5,1.5,0,0,0,.48,2.92Z"/><path class="cls-1" d="M63.82,65.76c.93,0,10.2-3.91,25.8-5.19a1.5,1.5,0,0,0-.24-3,111.22,111.22,0,0,0-26,5.26,1.5,1.5,0,0,0,.48,2.92Z"/><path class="cls-1" d="M63.82,54.64c.93,0,10.2-3.91,25.8-5.19a1.5,1.5,0,0,0-.25-3,111.22,111.22,0,0,0-26,5.26A1.5,1.5,0,0,0,63.82,54.64Z"/><path class="cls-1" d="M63.82,43.52c.92,0,10.21-3.92,25.8-5.19a1.5,1.5,0,0,0-.24-3,111.33,111.33,0,0,0-26,5.26,1.5,1.5,0,0,0,.48,2.92Z"/><path class="cls-1" d="M20.38,16.08c16,1.31,24.68,5.19,25.8,5.19a1.5,1.5,0,0,0,.48-2.92,111.45,111.45,0,0,0-26-5.26,1.5,1.5,0,0,0-.24,3Z"/><path class="cls-1" d="M20.38,27.21c16,1.31,24.68,5.19,25.8,5.19a1.5,1.5,0,0,0,.48-2.92,111.45,111.45,0,0,0-26-5.26,1.5,1.5,0,0,0-.24,3Z"/><path class="cls-1" d="M20.38,60.57c16.05,1.32,24.68,5.19,25.8,5.19a1.5,1.5,0,0,0,.48-2.92,111.22,111.22,0,0,0-26-5.26,1.5,1.5,0,0,0-.24,3Z"/><path class="cls-1" d="M20.38,49.45c16.05,1.32,24.68,5.19,25.8,5.19a1.5,1.5,0,0,0,.48-2.92,111.22,111.22,0,0,0-26-5.26A1.5,1.5,0,0,0,20.38,49.45Z"/><path class="cls-1" d="M20.38,38.33c16,1.31,24.68,5.19,25.8,5.19a1.5,1.5,0,0,0,.48-2.92,111.45,111.45,0,0,0-26-5.26,1.5,1.5,0,0,0-.24,3Z"/></svg>