<svg id="Layer_1" data-name="Layer 1" xmlns="http://www.w3.org/2000/svg" viewBox="0 0 87.5 87.5"><defs><style>.cls-1{fill:#f0f0f0;fill-rule:evenodd;}</style></defs><path class="cls-1" d="M43.75,0A43.75,43.75,0,1,0,87.5,43.75,43.77,43.77,0,0,0,43.75,0Zm0,6.25a37.5,37.5,0,1,1-37.5,37.5A37.53,37.53,0,0,1,43.75,6.25Z"/><path class="cls-1" d="M40.61,27.91V65.62a3.13,3.13,0,1,0,6.25,0V27.91L62.19,43.23a3.12,3.12,0,0,0,4.41-4.41L49.26,21.47a7.81,7.81,0,0,0-11,0L20.78,38.91a3.12,3.12,0,0,0,4.41,4.41Z"/></svg>